<svg width="165" height="165" viewBox="0 0 165 165" fill="none" xmlns="http://www.w3.org/2000/svg">
<path fill-rule="evenodd" clip-rule="evenodd" d="M126.763 127.598C125.255 126.794 118.83 119.743 113.328 117.219C102.089 112.061 76.0623 120.923 71.4002 112.3C68.8694 107.618 66.6745 99.1894 66.7579 92.8163C66.9818 75.7377 76.4609 72.4853 91.5111 69.6453C98.444 68.337 105.32 67.2924 112.386 66.372C119.955 65.3861 128.109 65.6408 135.884 65.4285C137.341 67.682 139.846 68.7734 141.49 71.3068C143.163 73.8867 144.306 75.7472 145.119 79.4272C147.097 88.3853 144.872 100.21 140.26 107.872C138.55 110.714 137.054 111.42 133.162 112.547C129.772 113.529 126.228 113.26 125.718 116.867C125.334 119.576 126.811 124.218 126.763 127.598ZM87.91 71.9002L89.0505 72.1473C89.1263 72.1399 90.0139 71.8787 90.0721 71.8559C90.7896 71.5752 91.1118 71.2023 91.8425 70.989C90.4418 70.8709 88.6642 70.7826 87.91 71.9002ZM91.2769 114.212C92.1509 114.822 94.3078 114.802 95.2627 114.255C94.4934 113.796 91.5354 113.009 91.2769 114.212ZM128.126 88.7424C128.289 86.1345 128.24 87.1256 128.661 85.2737C128.678 85.198 128.731 84.9784 128.733 84.9106C128.741 84.4937 128.679 84.6113 128.591 84.4256C127.45 84.0316 127 86.3182 127.338 87.5191C127.34 87.5241 127.561 88.0395 127.58 88.0714L128.126 88.7424ZM24.2777 79.8908C23.8141 78.8196 23.9388 79.0298 23.3807 78.5965C23.2 78.8789 22.9766 78.4227 23.157 79.6665C23.3258 80.8311 24.8254 83.712 25.9223 84.6492L24.2777 79.8908ZM110.047 89.4788C110.185 88.5213 110.311 87.4261 110.47 86.4318C110.71 84.9216 111.278 85.1226 111.26 83.9946C109.566 84.1776 109.15 86.5758 109.391 87.9648C109.569 88.9838 109.788 89.1362 110.047 89.4788ZM88.7549 91.4061C88.7869 90.2169 88.6622 89.0135 88.6488 87.837C88.625 85.716 89.1435 86.0686 89.6219 84.8944C86.6348 85.0524 87.596 89.6916 88.7549 91.4061ZM123.167 67.1422C125.079 67.5039 128.72 67.51 130.2 66.7152C129.018 66.4477 123.25 65.5617 123.167 67.1422ZM63.9057 67.7579L65.3849 66.0109C66.7288 63.545 65.0652 59.3911 63.2973 59.4793C63.6986 60.693 64.6694 60.7423 64.9114 63.045C65.0963 64.8062 64.3285 66.6106 63.9057 67.7579ZM41.1736 70.9412L41.7541 70.1159C43.2492 67.14 42.2114 63.1235 39.642 63.2489C40.4836 65.5933 41.8656 63.1777 41.1736 70.9412ZM88.7192 65.4067C90.3105 64.8101 91.5693 62.6271 91.0525 59.9596C90.6935 58.1065 89.3171 55.7856 87.5668 55.7423C87.6767 57.0949 89.3576 57.1688 89.8586 59.8893C90.3073 62.3269 89.2723 63.4703 88.7192 65.4067ZM48.0162 107.436C49.7513 106.104 50.2786 104.17 54.0729 101.511C56.5386 99.783 60.8135 97.9703 61.0465 96.4768C59.737 95.9255 49.9543 100.451 48.0162 107.436ZM97.4182 114.504C106.251 115.297 109.134 112.28 119.687 120.017C120.641 120.716 121.222 121.265 122.61 121.414C121.411 119.046 114.879 115.823 112.206 114.678C109.284 113.426 99.7893 112.3 97.4182 114.504ZM69.7054 97.6907C69.7516 97.5803 69.2782 89.5128 69.4709 87.8814C70.0594 82.8988 74.512 77.8978 78.5005 75.4587C79.604 74.784 80.7247 74.2306 82.0627 73.7874C83.3129 73.3733 84.8703 72.9704 85.824 72.1617C84.1658 71.4033 78.9282 73.8785 77.7077 74.6653C73.417 77.4309 68.927 82.5099 68.3441 87.8405C68.1392 89.7141 68.1984 94.0301 68.6365 95.9603C68.8652 96.9682 69.0111 97.4581 69.7054 97.6907ZM23.5984 76.1141C23.7177 69.2786 21.6133 67.6792 24.1425 57.7577C26.2395 49.5309 30.2624 45.4069 30.494 43.6146C29.325 43.8252 29.4511 44.027 28.8271 44.9247L25.6037 49.8037C24.2462 52.2475 23.5114 54.6937 22.7834 57.7C22.0058 60.9112 21.4972 64.0247 21.5793 67.456C21.6315 69.6455 21.9802 75.089 23.5984 76.1141ZM129.945 82.6362C130.403 82.4633 129.264 82.2517 130.813 82.489C134.751 83.0923 136.87 90.0479 131.869 91.6532C129.185 92.5152 127.281 90.1137 126.841 88.0376C126.583 86.8153 126.645 85.177 127.221 84.125C127.859 82.9595 128.557 83.1605 129.945 82.6362ZM129.212 80.2331C125.693 81.3023 126.785 81.9926 126.09 82.9576C122.627 87.7648 126.44 96.1976 132.645 94.2779C141.06 91.6742 136.756 77.9409 129.212 80.2331ZM111.844 82.6637C112.222 82.4519 111.308 82.2659 113.145 82.2363C119.495 82.1342 119.97 91.2567 115.025 93.9034C111.756 95.6532 109.609 92.7841 108.966 89.9502C108.609 88.3812 108.639 86.6344 109.037 85.0502C109.748 82.2194 110.394 83.4748 111.844 82.6637ZM112.902 79.6593C102.573 82.2158 106.062 99.5888 114.803 97.0647C118.121 96.1065 121.21 91.9744 121.007 87.3244C120.824 83.1481 117.185 78.599 112.902 79.6593ZM87.0336 91.2476C86.6233 89.2071 86.4187 84.4888 88.8004 83.6684C92.9808 82.2285 98.1077 84.6458 98.8088 88.8913C100.12 96.8292 88.8762 100.412 87.0336 91.2476ZM90.9314 80.7111C80.4104 83.4799 84.0001 102.639 94.9717 99.2409C101.253 97.2956 104.339 87.7719 97.6654 82.6625C96.1161 81.4764 93.4258 80.0546 90.9314 80.7111ZM34.099 61.0756C35.8828 60.6479 38.4673 60.8803 40.0813 61.5006C41.5608 62.0691 42.4325 63.2494 43.0705 65.0403C44.5056 69.069 41.9263 72.6305 39.8154 73.9409C31.1586 79.3146 28.0751 62.5199 34.099 61.0756ZM45.9172 69.5473C47.1915 64.3046 43.9287 58.0751 39.0871 58.228C37.2412 58.2864 33.0378 58.9731 31.7705 60.1494C26.5978 64.9504 28.4011 77.2802 35.9971 77.8351C41.0352 78.2032 44.9141 73.6745 45.9172 69.5473ZM60.0901 56.6972C63.5387 56.3166 67.2032 59.9018 66.6925 63.9694C65.6254 72.4686 51.4899 74.8641 52.827 63.9062C53.3564 59.5687 55.8217 57.1683 60.0901 56.6972ZM69.4936 65.364C70.9011 59.3601 67.0598 53.6989 61.3604 54.1764C56.9079 54.5495 51.7262 57.9079 50.6072 63.2957C49.3147 69.5187 52.8441 74.7593 58.7191 74.5546C63.9206 74.3738 68.4532 69.8022 69.4936 65.364ZM92.4802 63.0109C90.8519 67.8593 89.265 66.2793 82.7016 68.1325C79.6595 68.9914 79.0534 68.4216 78.0872 65.8752C76.6951 62.2067 77.6365 56.6332 80.8526 54.7992L85.2053 53.6967C87.5443 53.3382 94.6523 56.5438 92.4802 63.0109ZM77.4301 69.979C72.6094 71.6088 68.0879 75.8104 66.0524 80.0118C63.0381 86.233 63.2198 90.8847 63.5267 98.307L62.7921 98.7553C62.5799 98.8551 62.1317 98.9974 61.8368 99.1005C59.9366 99.7649 58.5707 100.632 56.8849 101.713C52.8742 104.283 44.9376 113.542 42.3246 117.292C41.7645 113.119 43.3038 108.402 42.957 104.343C42.5141 99.1598 38.4886 100.311 33.8435 99.6305C29.09 98.934 27.3726 97.4323 25.3671 94.2297C18.614 83.4464 15.4748 60.8779 22.8066 49.6264C23.7891 48.1188 24.7019 46.9221 25.6817 45.702L28.7758 41.724C29.8042 40.9957 49.8524 38.6726 52.4671 38.5132C61.1759 37.9826 70.1389 38.2769 78.8675 38.5522C91.1669 38.9403 101.658 40.2632 105.737 52.1336C106.436 54.1681 108.035 61.403 107.488 63.6166L94.0616 65.7338C95.2434 61.5428 96.31 58.7713 93.1891 54.9761C92.379 53.9909 90.9911 52.487 89.2863 52.0751C87.0534 51.5356 85.1327 52.2692 83.0603 52.197C76.4585 51.9666 74.447 59.5557 75.3047 64.7673C75.765 67.5666 76.6502 67.9949 77.4301 69.979ZM111.583 63.0253C110.377 44.6254 103.155 35.7555 84.8865 34.6586C65.7396 33.5091 46.6599 33.2973 28.2405 38.8394C27.3892 39.0955 26.3185 39.2116 25.7977 39.8543C25.3962 40.3499 25.6768 40.3122 25.1355 40.9866C22.8661 43.8146 21.0301 45.0942 18.6604 49.9257C12.3615 62.768 14.8129 83.3486 21.3026 94.9094C24.7398 101.033 26.5626 102.571 33.096 103.698C34.7389 103.981 38.0542 103.906 39.2507 104.398C39.9381 107.987 38.1044 115.322 38.6834 119.984C38.9756 122.338 40.8927 123.774 43.0815 122.169C44.5747 121.074 52.3984 110.968 54.3098 108.813C56.0667 106.831 60.289 102.945 64.2948 102.402C64.9081 105.976 66.4561 110.319 67.8424 113.239C69.4354 116.594 71.7246 118.325 76.1027 119.133C84.3898 120.662 94.4673 119.009 102.943 118.696C108.797 118.479 110.383 119.021 114.472 121.563C117.468 123.424 123.636 130.136 125.962 131.513C128.008 132.725 129.754 131.518 130.029 129.621C130.589 125.756 128.481 120.125 128.949 116.95C130.462 116.272 133.721 116.071 137.272 114.552C144.221 111.579 147.259 101.347 148.37 93.9897C149.932 83.6438 149.015 72.7316 140.714 66.0579C139.134 64.7871 139.343 65.1488 138.28 63.7456C138.252 63.7086 138.169 63.679 138.149 63.5827C137.92 62.5064 120.713 62.4474 117.854 62.5635C115.809 62.6467 113.5 63.0062 111.583 63.0253Z" fill="black"/>
</svg>
