<svg width="165" height="165" viewBox="0 0 165 165" fill="none" xmlns="http://www.w3.org/2000/svg">
<path d="M58.8496 102.137C57.3046 102.137 52.8196 99.707 32.6336 88.378C25.5156 84.383 17.4646 79.865 16.1956 79.367C15.6016 79.257 15.1156 78.784 15.0176 78.154C14.8936 77.357 15.4386 76.61 16.2366 76.485C25.5446 75.034 77.8276 55.175 84.6586 49.829C85.0876 49.494 85.6646 49.425 86.1586 49.647C86.3086 49.715 86.4446 49.807 86.5616 49.916C89.5226 51.485 120.859 61.418 124.235 61.858C124.236 61.858 124.237 61.858 124.238 61.857C124.641 61.803 125.055 61.919 125.371 62.18C125.897 62.617 126.075 63.325 125.823 63.986C124.791 66.691 101.262 80.384 94.0746 84.516C85.1636 89.64 64.5036 101.271 59.2536 102.062C59.1426 102.109 59.0136 102.137 58.8496 102.137ZM58.2056 99.286C58.0496 99.344 57.8836 99.437 57.7286 99.584C57.8656 99.454 58.0296 99.353 58.2056 99.286ZM58.7506 99.184C58.7706 99.184 58.7916 99.184 58.8086 99.184C60.6526 99.184 71.7556 93.95 91.8776 82.409C106.064 74.274 117.231 67.285 121.446 64.208C120.984 64.084 120.465 63.941 119.882 63.779C115.077 62.443 106.572 59.829 98.7196 57.273C90.9726 54.752 87.3526 53.503 85.6486 52.702C77.0836 58.248 35.7526 74.162 20.7256 78.407C23.2326 79.762 27.3056 82.036 34.0636 85.829C43.6106 91.187 56.6096 98.482 58.7336 99.184C58.7406 99.184 58.7456 99.184 58.7506 99.184ZM123.457 62.224C123.38 62.293 123.306 62.375 123.238 62.472C123.302 62.381 123.376 62.297 123.457 62.224ZM87.0176 50.876C87.0176 50.877 87.0176 50.878 87.0176 50.879C87.0176 50.877 87.0176 50.876 87.0176 50.876Z" fill="black"/>
<path d="M59.5395 93.6583C59.4275 93.6583 59.3145 93.6333 59.2115 93.5863C50.2715 89.4793 41.4455 84.9653 32.9785 80.1713C32.7065 80.0183 32.5525 79.7183 32.5835 79.4073C32.6145 79.0973 32.8275 78.8343 33.1235 78.7393C48.9065 73.6353 64.2965 67.3513 78.8655 60.0633C81.2095 58.8913 83.5775 57.6693 85.9035 56.4333C86.1025 56.3273 86.3355 56.3113 86.5475 56.3913C94.2655 59.2703 102.231 61.8933 110.222 64.1863C110.516 64.2703 110.734 64.5173 110.781 64.8193C110.829 65.1223 110.697 65.4233 110.443 65.5943C94.6435 76.2233 77.6255 85.6423 59.8585 93.5893C59.7585 93.6353 59.6485 93.6583 59.5395 93.6583ZM35.3105 79.6793C43.1585 84.0683 51.3015 88.2113 59.5445 92.0083C76.5865 84.3643 92.9355 75.3583 108.165 65.2273C100.795 63.0703 93.4595 60.6383 86.3305 57.9883C84.0925 59.1743 81.8205 60.3453 79.5705 61.4703C65.4545 68.5303 50.5725 74.6523 35.3105 79.6793Z" fill="black"/>
<path d="M87.3165 67.4332C88.9085 70.4032 84.8035 75.4542 77.8465 78.4472C70.8985 81.4462 63.9015 81.1402 62.5125 78.0442C61.1175 74.9422 65.6895 70.3202 72.4345 67.4452C79.1885 64.5782 85.7155 64.4552 87.3165 67.4332Z" fill="black"/>
<path d="M60.3096 110.191C60.2916 110.191 60.2755 110.191 60.2585 110.19L60.2595 110.177C58.7065 110.035 54.4965 108.04 39.6055 99.802C37.6045 98.696 20.0105 88.938 18.4785 87.278C17.9885 86.747 17.9325 86.131 18.1235 85.638C18.1675 85.505 18.2135 85.394 18.3205 85.282C18.3745 85.21 18.4345 85.142 18.5015 85.081L18.5315 85.114C19.1805 84.699 20.9665 84.149 26.5095 82.442C27.2795 82.207 28.0985 82.637 28.3365 83.409C28.5745 84.181 28.1416 84.998 27.3696 85.236C25.3536 85.857 23.8095 86.335 22.6655 86.69C30.5145 91.606 57.2215 106.307 60.2825 107.269C60.3005 107.269 60.3165 107.269 60.3345 107.27C60.3365 107.27 60.3395 107.27 60.3415 107.27C62.1065 107.27 72.8425 102.036 92.2775 90.528C106.261 82.248 117.201 75.166 121.033 72.226C119.971 71.903 118.489 71.457 116.516 70.878C115.742 70.651 115.298 69.838 115.526 69.064C115.754 68.29 116.567 67.85 117.34 68.074C122.158 69.49 123.9 70.001 124.588 70.414L124.608 70.389C124.67 70.438 124.726 70.491 124.778 70.547C124.93 70.674 125 70.799 125.049 70.948C125.223 71.324 125.244 71.765 125.089 72.19C124.111 74.866 101.411 88.505 94.4765 92.622C85.7835 97.782 65.4935 109.576 60.6535 110.169C60.6025 110.178 60.5475 110.183 60.4875 110.185C60.4265 110.189 60.3666 110.191 60.3096 110.191ZM59.3125 107.649C59.3115 107.65 59.3115 107.651 59.3105 107.652C59.3125 107.651 59.3125 107.65 59.3125 107.649ZM59.3746 107.596C59.3536 107.613 59.3335 107.631 59.3125 107.649C59.3325 107.631 59.3536 107.613 59.3746 107.596Z" fill="black"/>
<path d="M61.2956 118.782C61.2786 118.782 61.2616 118.782 61.2456 118.781V118.768C59.6936 118.626 55.4836 116.632 40.5916 108.393C38.5906 107.286 20.9966 97.528 19.4646 95.868C18.9746 95.337 18.9186 94.721 19.1096 94.228C19.1536 94.094 19.1996 93.983 19.3066 93.872C19.3606 93.799 19.4216 93.732 19.4876 93.671L19.5176 93.704C20.1656 93.289 21.9516 92.739 27.4956 91.033C28.2666 90.798 29.0856 91.228 29.3226 92C29.5606 92.772 29.1276 93.589 28.3556 93.827C26.3496 94.444 24.8026 94.923 23.6526 95.28C31.5026 100.197 58.2076 114.897 61.2686 115.86C61.2866 115.861 61.3036 115.86 61.3196 115.861C61.3226 115.861 61.3256 115.861 61.3276 115.861C63.0916 115.861 73.8286 110.627 93.2636 99.119C107.38 90.76 118.395 83.622 122.127 80.735C120.933 80.321 119.174 79.745 116.798 79.046C116.024 78.818 115.58 78.006 115.808 77.232C116.036 76.458 116.855 76.018 117.622 76.242C122.936 77.804 124.84 78.5 125.575 79.003L125.593 78.98C125.683 79.052 125.763 79.132 125.833 79.218C125.929 79.319 125.984 79.416 126.023 79.516C126.209 79.897 126.234 80.348 126.075 80.781C125.098 83.456 102.399 97.096 95.4636 101.213C86.7696 106.374 66.4796 118.169 61.6406 118.761C61.5906 118.77 61.5346 118.775 61.4746 118.777C61.4116 118.78 61.3516 118.782 61.2956 118.782ZM60.3476 116.198C60.3336 116.209 60.3196 116.222 60.3056 116.234C60.3186 116.222 60.3326 116.21 60.3476 116.198ZM60.3496 116.195C60.3486 116.196 60.3476 116.197 60.3466 116.197C60.3486 116.197 60.3496 116.196 60.3496 116.195Z" fill="black"/>
<path d="M63.1264 126.387C63.1094 126.387 63.0925 126.387 63.0765 126.386V126.373C61.5245 126.231 57.3135 124.237 42.4215 115.997C40.4195 114.89 22.8245 105.131 21.2945 103.473C20.7815 102.916 20.7444 102.267 20.9704 101.763C21.2274 101.148 21.7475 100.991 22.2955 100.825C22.9465 100.628 24.5255 100.149 28.0595 99.0605C28.8295 98.8275 29.6485 99.2555 29.8865 100.027C30.1245 100.799 29.6914 101.616 28.9194 101.854C27.4834 102.296 26.3694 102.638 25.5094 102.901C33.3914 107.833 60.0434 122.502 63.0994 123.464C63.1184 123.466 63.1345 123.464 63.1505 123.465C63.1535 123.465 63.1565 123.465 63.1585 123.465C64.9225 123.465 75.6595 118.231 95.0945 106.723C109.24 98.3465 120.272 91.1965 123.982 88.3205C122.822 87.9075 121.109 87.3365 118.77 86.6495C117.996 86.4215 117.552 85.6095 117.78 84.8355C118.008 84.0615 118.825 83.6215 119.594 83.8455C124.77 85.3675 126.662 86.1005 127.4 86.6145L127.425 86.5855C127.553 86.6885 127.662 86.8075 127.749 86.9375C127.785 86.9865 127.814 87.0355 127.836 87.0845C128.038 87.4725 128.07 87.9385 127.906 88.3855C126.929 91.0605 104.229 104.7 97.2955 108.816C88.6005 113.978 68.3095 125.772 63.4715 126.365C63.4215 126.374 63.3654 126.379 63.3064 126.381C63.2424 126.385 63.1824 126.387 63.1264 126.387ZM62.1294 123.845C62.1284 123.846 62.1274 123.846 62.1264 123.847C62.1274 123.845 62.1284 123.845 62.1294 123.845Z" fill="black"/>
<path d="M80.2315 124.401C80.2255 124.069 80.2465 123.738 80.2835 123.409C71.1235 128.424 65.8905 130.789 64.7075 130.789H64.7005C64.6825 130.788 64.6675 130.79 64.6485 130.788C61.5915 129.826 34.9395 115.157 27.0575 110.225C27.9175 109.961 29.0315 109.62 30.4685 109.178C31.2405 108.94 31.6725 108.123 31.4355 107.351C31.1985 106.58 30.3785 106.151 29.6085 106.384C26.0765 107.472 24.4965 107.951 23.8455 108.148C23.2955 108.315 22.7735 108.473 22.5175 109.09C22.2925 109.593 22.3315 110.243 22.8435 110.798C24.3785 112.459 41.9715 122.216 43.9725 123.322C58.8635 131.56 63.0735 133.555 64.6265 133.697L64.6255 133.71C64.6425 133.711 64.6584 133.711 64.6764 133.711C64.7324 133.711 64.7935 133.709 64.8565 133.704C64.9155 133.702 64.9695 133.696 65.0205 133.688C67.4305 133.393 73.6745 130.319 80.4095 126.67C80.3375 125.913 80.2445 125.155 80.2315 124.401Z" fill="black"/>
<path d="M129.386 94.4064C129.363 94.3574 129.335 94.3074 129.298 94.2574C129.21 94.1284 129.102 94.0104 128.975 93.9074L128.951 93.9364C128.213 93.4224 126.321 92.6904 121.144 91.1684C120.369 90.9454 119.558 91.3844 119.33 92.1584C119.103 92.9324 119.546 93.7454 120.32 93.9724C122.659 94.6594 124.372 95.2304 125.532 95.6424C121.824 98.5174 110.791 105.668 96.6445 114.045C95.3505 114.811 94.1015 115.545 92.8845 116.256C94.2295 116.184 95.5745 116.129 96.9205 116.137C97.5345 116.14 98.1475 116.16 98.7615 116.188C98.7885 116.172 98.8175 116.155 98.8435 116.139C105.778 112.022 128.478 98.3834 129.456 95.7074C129.619 95.2604 129.586 94.7944 129.386 94.4064Z" fill="black"/>
<path d="M63.6754 131.17L63.6724 131.173C63.6744 131.172 63.6754 131.17 63.6754 131.17Z" fill="black"/>
<path d="M63.7365 131.118C63.7175 131.133 63.6975 131.15 63.6785 131.167C63.6975 131.15 63.7165 131.133 63.7365 131.118Z" fill="black"/>
<path d="M80.1045 130.421C70.8675 135.295 65.5835 137.59 64.3715 137.59C64.3495 137.589 64.3225 137.588 64.2975 137.588C61.2565 136.58 34.8355 121.496 27.0305 116.443C27.8955 116.193 29.0155 115.868 30.4575 115.449C31.2325 115.224 31.6785 114.412 31.4525 113.638C31.2275 112.864 30.4176 112.415 29.6416 112.643C26.1276 113.666 24.5375 114.121 23.8715 114.312C23.2805 114.481 22.7655 114.63 22.5045 115.251C22.2785 115.75 22.3096 116.393 22.8096 116.951C24.3166 118.635 41.7566 128.664 43.7396 129.802C58.5016 138.271 62.6805 140.331 64.2295 140.496V140.51C64.2565 140.511 64.2836 140.511 64.3136 140.511C64.3606 140.511 64.4096 140.51 64.4606 140.507C64.5206 140.506 64.5745 140.501 64.6255 140.493C66.8955 140.251 72.5905 137.606 78.9055 134.346C79.1645 133 79.6965 131.73 80.1045 130.421Z" fill="black"/>
<path d="M129.575 102.184C129.527 102.073 129.461 101.967 129.339 101.854C129.292 101.805 129.243 101.757 129.189 101.713L129.179 101.725C128.548 101.276 126.938 100.664 122.376 99.2467C121.603 99.0077 120.786 99.4377 120.546 100.209C120.306 100.98 120.737 101.799 121.508 102.039C123.414 102.631 124.763 103.083 125.698 103.413C122.637 105.706 114.741 110.721 104.27 116.875C105.405 117.112 106.53 117.413 107.597 117.852C107.743 117.912 107.883 117.989 108.027 118.056C117.271 112.587 128.925 105.401 129.644 103.522C129.818 103.063 129.787 102.582 129.575 102.184Z" fill="black"/>
<path d="M63.3805 137.906C63.3615 137.921 63.3425 137.937 63.3225 137.954C63.3415 137.937 63.3615 137.921 63.3805 137.906Z" fill="black"/>
<path d="M63.3827 137.903L63.3796 137.905C63.3816 137.905 63.3827 137.903 63.3827 137.903Z" fill="black"/>
<path d="M130.23 122.363C120.945 122.363 113.673 118.84 113.673 114.342C113.673 109.844 120.945 106.321 130.23 106.321C139.515 106.321 146.788 109.844 146.788 114.342C146.788 118.84 139.516 122.363 130.23 122.363ZM130.23 108.429C121.715 108.429 115.781 111.546 115.781 114.342C115.781 117.138 121.715 120.255 130.23 120.255C138.745 120.255 144.68 117.138 144.68 114.342C144.68 111.546 138.745 108.429 130.23 108.429Z" fill="black"/>
<path d="M94.8065 145.638C85.5215 145.638 78.2495 142.115 78.2495 137.618V133.856C78.2495 133.274 78.7215 132.802 79.3035 132.802C79.8855 132.802 80.3575 133.274 80.3575 133.856V137.618C80.3575 140.414 86.2915 143.53 94.8065 143.53C103.321 143.53 109.257 140.414 109.257 137.618V133.595C109.257 133.013 109.728 132.541 110.31 132.541C110.892 132.541 111.365 133.013 111.365 133.595V137.618C111.364 142.115 104.091 145.638 94.8065 145.638Z" fill="black"/>
<path d="M130.23 126.811C120.945 126.811 113.673 123.288 113.673 118.79V115.029C113.673 114.447 114.145 113.975 114.727 113.975C115.309 113.975 115.781 114.447 115.781 115.029V118.79C115.781 121.586 121.715 124.703 130.23 124.703C138.745 124.703 144.68 121.586 144.68 118.79V114.768C144.68 114.186 145.152 113.714 145.734 113.714C146.316 113.714 146.788 114.186 146.788 114.768V118.79C146.788 123.288 139.516 126.811 130.23 126.811Z" fill="black"/>
<path d="M110.439 130.498C110.435 130.507 110.435 130.518 110.431 130.527C110.353 130.71 110.249 130.882 110.129 131.04C110.006 131.201 109.867 131.348 109.714 131.481C109.555 131.619 109.384 131.742 109.206 131.853C109.114 131.91 109.014 131.956 108.918 132.007C109.133 132.395 109.257 132.785 109.257 133.169C109.257 135.965 103.321 139.082 94.8065 139.082C86.2915 139.082 80.3575 135.965 80.3575 133.169C80.3575 132.221 81.0535 131.238 82.2885 130.35C82.2435 130.311 82.1955 130.275 82.1505 130.235C81.8965 130.009 81.6515 129.771 81.4335 129.511C81.2365 129.276 81.0625 129.021 80.9295 128.744C79.2345 130.005 78.2505 131.52 78.2505 133.169C78.2505 137.667 85.5225 141.19 94.8075 141.19C104.092 141.19 111.366 137.667 111.366 133.169C111.364 132.227 111.029 131.331 110.439 130.498Z" fill="black"/>
<path d="M95.9667 135.376C86.6817 135.376 79.4087 131.853 79.4087 127.355V123.593C79.4087 123.011 79.8807 122.539 80.4627 122.539C81.0447 122.539 81.5167 123.011 81.5167 123.593V127.355C81.5167 130.151 87.4517 133.268 95.9667 133.268C104.482 133.268 110.416 130.151 110.416 127.355V123.332C110.416 122.75 110.888 122.278 111.47 122.278C112.052 122.278 112.524 122.75 112.524 123.332V127.355C112.524 131.853 105.252 135.376 95.9667 135.376Z" fill="black"/>
<path d="M95.9667 130.929C86.6817 130.929 79.4087 127.406 79.4087 122.908C79.4087 118.411 86.6807 114.888 95.9667 114.888C105.252 114.888 112.524 118.411 112.524 122.908C112.524 127.406 105.252 130.929 95.9667 130.929ZM95.9667 116.996C87.4517 116.996 81.5167 120.112 81.5167 122.908C81.5167 125.704 87.4517 128.821 95.9667 128.821C104.482 128.821 110.416 125.704 110.416 122.908C110.416 120.111 104.482 116.996 95.9667 116.996Z" fill="black"/>
<path d="M132.105 130.3C122.82 130.3 115.547 126.777 115.547 122.279C115.547 121.697 116.019 121.225 116.601 121.225C117.183 121.225 117.655 121.697 117.655 122.279C117.655 125.075 123.59 128.192 132.105 128.192C140.62 128.192 146.554 125.075 146.554 122.279C146.554 121.697 147.026 121.225 147.608 121.225C148.19 121.225 148.662 121.697 148.662 122.279C148.661 126.777 141.389 130.3 132.105 130.3Z" fill="black"/>
<path d="M132.105 134.747C122.82 134.747 115.547 131.224 115.547 126.726V122.965C115.547 122.383 116.019 121.911 116.601 121.911C117.183 121.911 117.655 122.383 117.655 122.965V126.726C117.655 129.522 123.59 132.639 132.105 132.639C140.62 132.639 146.554 129.522 146.554 126.726V122.704C146.554 122.122 147.026 121.65 147.608 121.65C148.19 121.65 148.662 122.122 148.662 122.704V126.726C148.661 131.224 141.389 134.747 132.105 134.747Z" fill="black"/>
<path d="M145.334 127.119C144.964 127.119 144.605 126.924 144.412 126.578C144.128 126.07 144.31 125.428 144.819 125.143C145.655 124.676 146.259 123.619 146.433 122.316C146.475 121.998 146.486 121.549 146.3 121.22C146.186 121.017 145.981 120.91 145.855 120.909C145.269 120.977 144.753 120.56 144.688 119.981C144.621 119.403 145.037 118.879 145.616 118.814C146.6 118.701 147.609 119.251 148.136 120.18C148.512 120.844 148.646 121.678 148.525 122.594C148.263 124.554 147.263 126.195 145.848 126.985C145.684 127.075 145.508 127.119 145.334 127.119Z" fill="black"/>
<path d="M132.105 140.204C122.82 140.204 115.547 136.681 115.547 132.183C115.547 131.601 116.019 131.129 116.601 131.129C117.183 131.129 117.655 131.601 117.655 132.183C117.655 134.979 123.59 138.096 132.105 138.096C140.62 138.096 146.554 134.979 146.554 132.183C146.554 131.601 147.026 131.129 147.608 131.129C148.19 131.129 148.662 131.601 148.662 132.183C148.661 136.681 141.389 140.204 132.105 140.204Z" fill="black"/>
<path d="M132.105 144.652C122.82 144.652 115.547 141.129 115.547 136.631V132.869C115.547 132.287 116.019 131.815 116.601 131.815C117.183 131.815 117.655 132.287 117.655 132.869V136.631C117.655 139.427 123.59 142.544 132.105 142.544C140.62 142.544 146.554 139.427 146.554 136.631V132.608C146.554 132.026 147.026 131.554 147.608 131.554C148.19 131.554 148.662 132.026 148.662 132.608V136.631C148.661 141.129 141.389 144.652 132.105 144.652Z" fill="black"/>
<path d="M120.101 137.559C119.949 137.559 119.793 137.526 119.646 137.455C117.819 136.58 116.958 135.779 116.227 134.845C115.446 133.849 115.191 131.622 115.682 130.079C116.068 128.867 116.789 128.424 117.326 128.264C117.887 128.098 118.472 128.418 118.638 128.976C118.804 129.534 118.484 130.121 117.925 130.287C117.892 130.304 117.737 130.47 117.631 130.946C117.401 131.988 117.661 133.254 117.888 133.543C118.453 134.265 119.095 134.852 120.558 135.552C121.083 135.804 121.305 136.434 121.054 136.959C120.872 137.338 120.494 137.559 120.101 137.559Z" fill="black"/>
<path d="M144.664 137.291C144.277 137.291 143.904 137.077 143.719 136.707C143.459 136.186 143.67 135.553 144.192 135.292C144.71 135.033 145.466 134.342 145.912 133.717C146.342 133.116 146.561 132.482 146.529 131.934C146.497 131.415 146.192 130.926 145.805 130.772C145.263 130.558 144.997 129.945 145.211 129.404C145.425 128.862 146.038 128.596 146.579 128.81C147.726 129.263 148.552 130.467 148.633 131.807C148.712 133.127 148.131 134.241 147.628 134.943C147.097 135.685 146.091 136.7 145.133 137.179C144.982 137.255 144.822 137.291 144.664 137.291Z" fill="black"/>
<path d="M74.4585 48.5885C73.8195 48.5885 73.2315 48.1655 73.0515 47.5195L70.8935 39.7605C70.6775 38.9835 71.1325 38.1775 71.9105 37.9615C72.6845 37.7465 73.4936 38.2015 73.7096 38.9785L75.8675 46.7365C76.0835 47.5145 75.6286 48.3205 74.8516 48.5365C74.7196 48.5715 74.5875 48.5885 74.4585 48.5885Z" fill="black"/>
<path d="M82.6395 46.143C82.6305 46.143 82.6225 46.143 82.6145 46.143C81.8075 46.13 81.1635 45.465 81.1765 44.658L81.5425 22.438C81.5555 21.639 82.2075 21 83.0025 21C83.0115 21 83.0195 21 83.0275 21C83.8355 21.013 84.4785 21.678 84.4655 22.485L84.0995 44.705C84.0865 45.505 83.4355 46.143 82.6395 46.143Z" fill="black"/>
<path d="M91.9525 46.9448C91.8625 46.9448 91.7705 46.9368 91.6795 46.9188C90.8865 46.7698 90.3645 46.0058 90.5155 45.2118C91.4845 40.0778 92.1075 34.8308 92.3655 29.6178C92.4065 28.8128 93.0535 28.1858 93.8975 28.2308C94.7035 28.2708 95.3245 28.9568 95.2845 29.7628C95.0205 35.1098 94.3805 40.4898 93.3865 45.7548C93.2545 46.4558 92.6405 46.9448 91.9525 46.9448Z" fill="black"/>
<path d="M98.8186 50.1035C98.5686 50.1035 98.3146 50.0395 98.0836 49.9045C97.3866 49.4975 97.1516 48.6025 97.5576 47.9055L105.657 34.0255C106.064 33.3295 106.96 33.0935 107.656 33.4995C108.353 33.9065 108.588 34.8015 108.182 35.4985L100.083 49.3785C99.8096 49.8435 99.3206 50.1035 98.8186 50.1035Z" fill="black"/>
<path d="M107.745 53.4806C107.327 53.4806 106.911 53.3146 106.601 52.9876C106.004 52.3556 106.033 51.3606 106.665 50.7646C109.456 48.1296 112.503 45.7286 115.719 43.6316C116.447 43.1546 117.42 43.3626 117.895 44.0896C118.37 44.8166 118.165 45.7916 117.437 46.2656C114.376 48.2626 111.479 50.5456 108.824 53.0526C108.521 53.3386 108.133 53.4806 107.745 53.4806Z" fill="black"/>
<path d="M35.6965 53.8973C29.3395 54.8013 28.6065 55.5343 27.7025 61.8913C26.7985 55.5343 26.0655 54.8013 19.7085 53.8973C26.0655 52.9933 26.7985 52.2603 27.7025 45.9033C28.6065 52.2593 29.3395 52.9923 35.6965 53.8973Z" fill="white"/>
<path d="M27.7025 62.9456C27.1775 62.9456 26.7326 62.5596 26.6586 62.0396C25.8246 56.1736 25.4256 55.7756 19.5596 54.9416C19.0406 54.8686 18.6536 54.4226 18.6536 53.8976C18.6526 53.3726 19.0386 52.9276 19.5596 52.8536C25.4266 52.0186 25.8246 51.6206 26.6586 45.7546C26.7316 45.2356 27.1765 44.8486 27.7025 44.8486C28.2275 44.8476 28.6726 45.2336 28.7466 45.7546C29.5816 51.6206 29.9796 52.0186 35.8456 52.8536C36.3656 52.9266 36.7526 53.3726 36.7516 53.8976C36.7516 54.4226 36.3656 54.8676 35.8456 54.9416C29.9796 55.7756 29.5816 56.1736 28.7466 62.0396C28.6726 62.5596 28.2275 62.9456 27.7025 62.9456ZM24.5766 53.8976C26.1636 54.5196 27.0805 55.4366 27.7025 57.0236C28.3255 55.4356 29.2416 54.5196 30.8296 53.8976C29.2426 53.2746 28.3255 52.3576 27.7025 50.7706C27.0805 52.3586 26.1646 53.2746 24.5766 53.8976Z" fill="black"/>
<path d="M59.9074 36.6512C53.5504 37.5552 52.8175 38.2882 51.9135 44.6452C51.0095 38.2882 50.2764 37.5552 43.9194 36.6512C50.2764 35.7472 51.0095 35.0142 51.9135 28.6572C52.8175 35.0142 53.5504 35.7472 59.9074 36.6512Z" fill="white"/>
<path d="M51.9135 45.7005C51.3885 45.7015 50.9435 45.3155 50.8695 44.7945C50.0345 38.9275 49.6365 38.5295 43.7705 37.6955C43.2515 37.6225 42.8645 37.1765 42.8645 36.6515C42.8635 36.1265 43.2495 35.6815 43.7705 35.6075C49.6365 34.7725 50.0345 34.3745 50.8695 28.5085C50.9425 27.9885 51.3885 27.6025 51.9135 27.6025C52.4385 27.6025 52.8835 27.9885 52.9575 28.5085C53.7915 34.3745 54.1895 34.7725 60.0565 35.6075C60.5765 35.6805 60.9635 36.1265 60.9625 36.6515C60.9625 37.1765 60.5765 37.6215 60.0565 37.6955C54.1905 38.5295 53.7915 38.9285 52.9575 44.7945C52.8835 45.3145 52.4385 45.7005 51.9135 45.7005ZM48.7855 36.6515C50.3735 37.2735 51.2895 38.1905 51.9125 39.7775C52.5345 38.1905 53.4515 37.2735 55.0385 36.6515C53.4515 36.0285 52.5345 35.1125 51.9125 33.5245C51.2895 35.1115 50.3725 36.0285 48.7855 36.6515Z" fill="black"/>
</svg>
