<svg width="1440" height="445" viewBox="0 0 1440 445" fill="none" xmlns="http://www.w3.org/2000/svg">
<g clip-path="url(#clip0_37_24335)">
<path d="M1186.09 266.476C1185.62 266.435 1186.25 266.518 1185.87 266.45C1186.11 266.635 1186.35 266.821 1186.59 267.007C1186.34 266.627 1186.09 266.311 1185.63 266.182C1185.48 266.135 1185.52 266.157 1185.75 266.247C1185.54 266.116 1185.65 266.237 1186.09 266.609C1186.18 266.77 1186.23 266.944 1186.23 267.13C1186.18 267.412 1186.17 267.481 1186.2 267.336C1186.25 267.144 1186.03 267.67 1186.21 267.35C1186.32 267.176 1186.38 266.985 1186.45 266.796C1186.32 267.16 1186.48 266.75 1186.51 266.678C1186.67 266.352 1186.77 266.016 1186.88 265.673C1187.07 265.086 1186.45 264.47 1185.87 264.659C1185.43 264.798 1185.02 264.944 1184.63 265.188C1184.09 265.531 1183.76 265.949 1183.52 266.531C1182.89 268.071 1184.8 269.617 1186.16 268.667C1185.95 268.722 1185.75 268.777 1185.55 268.832C1185.73 268.838 1185.9 268.832 1186.09 268.82C1186.72 268.78 1187.26 268.318 1187.26 267.648C1187.26 266.967 1186.72 266.532 1186.09 266.476Z" fill="black"/>
<path d="M1199.25 240.705C1201.28 240.705 1201.28 237.55 1199.25 237.55C1197.21 237.55 1197.21 240.705 1199.25 240.705Z" fill="black"/>
<path d="M1141.17 243.835C1141.18 243.791 1141.19 243.747 1141.19 243.703C1141.2 243.669 1141.2 243.636 1141.21 243.602C1141.26 243.28 1141.31 243.565 1140.95 243.916C1141.24 243.637 1141.4 243.261 1141.38 242.861C1141.37 242.653 1141.32 242.44 1141.28 242.233C1141.18 241.664 1140.56 241.267 1140.01 241.267C1139.47 241.267 1138.85 241.664 1138.74 242.233C1138.64 242.829 1138.56 243.411 1139.05 243.888C1139.2 244.044 1139.12 243.9 1138.8 243.458C1138.8 243.495 1138.81 243.533 1138.81 243.57C1138.82 243.615 1138.83 243.659 1138.84 243.704C1138.84 243.747 1138.85 243.791 1138.86 243.835C1138.94 244.355 1139.53 244.717 1140.01 244.717C1140.5 244.716 1141.09 244.354 1141.17 243.835Z" fill="black"/>
<path d="M1132.34 266.592C1131.89 266.631 1131.29 266.592 1130.93 266.86C1130.67 267.058 1130.48 267.299 1130.48 267.648C1130.48 267.997 1130.67 268.238 1130.93 268.436C1131.29 268.704 1131.89 268.665 1132.34 268.704C1132.91 268.755 1133.39 268.185 1133.39 267.648C1133.39 267.111 1132.91 266.541 1132.34 266.592Z" fill="black"/>
<path d="M1090.26 257.776C1090.25 257.422 1090.25 257.067 1090.24 256.713C1090.23 256.384 1090.03 256.171 1089.74 256.057C1089.65 256.022 1089.46 256.022 1089.37 256.057C1089.08 256.171 1088.88 256.384 1088.88 256.713C1088.87 257.067 1088.86 257.422 1088.85 257.776C1088.84 258.163 1089.18 258.485 1089.56 258.485C1089.93 258.485 1090.27 258.163 1090.26 257.776Z" fill="black"/>
<path d="M1121.74 216.946C1121.69 216.933 1121.64 216.92 1121.6 216.906C1121.95 217.365 1122.3 217.825 1122.65 218.284C1122.65 218.246 1122.65 218.208 1122.65 218.169C1122.64 216.973 1121.68 216.093 1120.52 216.043C1120.5 216.043 1120.49 216.042 1120.47 216.039C1120.66 216.065 1120.85 216.089 1121.03 216.114C1121.01 216.111 1121 216.106 1120.98 216.099C1121.14 216.169 1121.31 216.238 1121.47 216.308C1121.46 216.303 1121.45 216.298 1121.45 216.291C1121.58 216.399 1121.72 216.506 1121.86 216.613C1121.85 216.607 1121.85 216.599 1121.84 216.591C1121.95 216.729 1122.05 216.867 1122.16 217.005C1122.15 216.992 1122.14 216.98 1122.14 216.965C1122.2 217.126 1122.27 217.286 1122.34 217.447C1122.33 217.431 1122.33 217.416 1122.33 217.399C1122.35 217.576 1122.38 217.752 1122.4 217.929C1122.4 217.904 1122.4 217.879 1122.4 217.854C1122.38 218.027 1122.35 218.2 1122.33 218.374C1122.37 218.099 1122.5 217.921 1122.47 217.601C1122.47 217.282 1122.39 216.984 1122.23 216.709C1121.98 216.29 1121.62 216.053 1121.17 215.896C1120.42 215.631 1119.57 216.025 1119.01 216.507C1118.27 217.15 1118.13 218.44 1118.68 219.242C1119.12 219.873 1119.73 220.295 1120.52 220.295C1120.9 220.294 1121.26 220.197 1121.59 220.005C1122.1 219.71 1122.38 219.271 1122.57 218.734C1122.58 218.71 1122.59 218.687 1122.59 218.663C1122.26 218.996 1121.93 219.328 1121.6 219.661C1121.64 219.649 1121.69 219.637 1121.74 219.625C1122.33 219.466 1122.76 218.899 1122.76 218.285C1122.76 217.666 1122.33 217.113 1121.74 216.946Z" fill="black"/>
<path d="M1108.2 276.766C1108.08 276.766 1107.95 276.766 1107.83 276.763C1108.42 277.216 1109.02 277.67 1109.62 278.123C1109.6 278.068 1109.58 278.013 1109.57 277.959C1109.35 277.196 1108.75 276.586 1107.98 276.374C1107.58 276.266 1107.18 276.266 1106.78 276.374C1106.26 276.516 1105.65 276.908 1105.42 277.417C1105.42 277.419 1105.42 277.421 1105.42 277.423C1105.86 277.083 1106.3 276.743 1106.74 276.403C1106.72 276.411 1106.69 276.418 1106.66 276.426C1107.21 276.572 1107.76 276.717 1108.32 276.863C1108.3 276.839 1108.28 276.815 1108.26 276.791C1108.34 276.9 1108.43 277.01 1108.51 277.12C1108.49 277.098 1108.48 277.077 1108.46 277.055C1108.32 276.819 1108.13 276.632 1107.9 276.492C1107.65 276.35 1107.39 276.279 1107.11 276.278C1106.52 276.278 1106.08 276.592 1105.75 277.055C1105.71 277.113 1105.67 277.172 1105.63 277.233C1105.84 277.027 1106.04 276.822 1106.25 276.616C1105.7 276.872 1105.39 277.414 1105.19 277.959C1105.08 278.361 1105.08 278.763 1105.19 279.165C1105.35 279.732 1105.73 280.224 1106.23 280.521C1107.29 281.142 1108.72 280.779 1109.34 279.707C1109.37 279.655 1109.4 279.602 1109.43 279.55C1108.9 279.856 1108.36 280.162 1107.83 280.468C1107.95 280.47 1108.08 280.47 1108.2 280.47C1109.21 280.47 1110.06 279.627 1110.06 278.617C1110.06 277.608 1109.21 276.766 1108.2 276.766Z" fill="black"/>
<path d="M1066.93 220.083C1066.77 220.051 1066.62 220.02 1066.46 219.98C1066.79 220.787 1067.12 221.594 1067.45 222.402C1067.66 222.032 1067.76 221.682 1067.77 221.251C1067.77 221.187 1067.78 221.123 1067.79 221.06C1067.76 221.223 1067.74 221.385 1067.72 221.548C1067.75 221.312 1067.8 221.077 1067.83 220.841C1067.9 220.6 1067.9 220.358 1067.83 220.117C1067.77 219.887 1067.65 219.687 1067.48 219.517C1067.31 219.349 1067.11 219.232 1066.88 219.167C1066.64 219.103 1066.4 219.103 1066.16 219.167C1065.85 219.211 1065.51 219.246 1065.22 219.357C1064.71 219.549 1064.29 219.799 1064.01 220.284C1063.74 220.75 1063.66 221.318 1063.81 221.839C1064.15 223.079 1065.65 223.725 1066.77 223.045C1066.8 223.028 1066.83 223.01 1066.85 222.993C1066.72 223.048 1066.59 223.104 1066.46 223.159C1066.62 223.135 1066.77 223.102 1066.93 223.07C1067.6 222.932 1068.07 222.23 1068.07 221.576C1068.07 220.922 1067.6 220.221 1066.93 220.083Z" fill="black"/>
<path d="M1260.31 146.582C1260.25 146.845 1260.2 147.11 1260.14 147.374C1260.2 147.239 1260.26 147.105 1260.31 146.97C1260.31 146.98 1260.3 146.989 1260.3 146.999C1260.39 146.884 1260.48 146.769 1260.57 146.654C1260.54 146.689 1260.51 146.725 1260.48 146.758C1260.05 147.257 1259.83 147.872 1260.01 148.533C1260.23 149.315 1260.96 149.871 1261.77 149.871C1262.41 149.871 1263.02 149.523 1263.35 148.968C1263.78 148.225 1263.6 147.38 1263.06 146.758C1263.03 146.725 1263 146.689 1262.98 146.654C1263.07 146.769 1263.15 146.884 1263.24 146.999C1263.24 146.989 1263.23 146.98 1263.23 146.97C1263.29 147.105 1263.34 147.239 1263.4 147.374C1263.35 147.11 1263.29 146.845 1263.24 146.582C1263.1 145.926 1262.41 145.466 1261.77 145.466C1261.13 145.466 1260.44 145.926 1260.31 146.582Z" fill="black"/>
<path d="M1281.52 193.928C1284.06 193.928 1284.06 189.991 1281.52 189.991C1278.98 189.991 1278.98 193.928 1281.52 193.928Z" fill="black"/>
<path d="M1318.81 176.073C1320.96 176.073 1320.96 172.745 1318.81 172.745C1316.67 172.745 1316.67 176.073 1318.81 176.073Z" fill="black"/>
<path d="M1322.1 140.466C1323.6 140.466 1323.6 138.15 1322.1 138.15C1320.61 138.15 1320.61 140.466 1322.1 140.466Z" fill="black"/>
<path d="M1293.58 164.583C1295.06 164.583 1295.06 162.297 1293.58 162.297C1292.11 162.297 1292.11 164.583 1293.58 164.583Z" fill="black"/>
<path d="M1250.83 299.481C1250.67 299.617 1250.49 299.747 1250.35 299.902C1250.06 300.224 1249.87 300.596 1249.87 301.039C1249.87 301.757 1250.36 302.355 1251.04 302.56C1251.4 302.673 1251.77 302.61 1252.12 302.472C1252.53 302.304 1252.99 302.185 1253.32 301.857C1253.48 301.698 1253.57 301.526 1253.69 301.349C1253.8 301.181 1253.45 301.644 1253.59 301.475C1253.75 301.281 1253.88 301.129 1253.94 300.876C1254.1 300.194 1253.7 299.636 1253.1 299.371C1252.66 299.177 1252.25 299.017 1251.75 299.169C1251.52 299.24 1251.29 299.33 1251.08 299.448C1250.94 299.521 1250.82 299.614 1250.68 299.679C1250.8 299.626 1250.93 299.573 1251.05 299.52C1251.05 299.523 1251.04 299.525 1251.04 299.526C1251.31 299.526 1251.59 299.526 1251.87 299.526C1251.87 299.526 1251.87 299.526 1251.87 299.526C1252.18 299.767 1252.49 300.007 1252.81 300.248C1252.81 300.247 1252.8 300.246 1252.8 300.245C1252.88 300.509 1252.95 300.774 1253.02 301.039C1253.02 301.037 1253.02 301.035 1253.02 301.033C1253 301.172 1252.98 301.311 1252.96 301.451C1252.96 301.447 1252.97 301.445 1252.97 301.442C1252.91 301.567 1252.86 301.692 1252.81 301.817C1252.82 301.793 1252.84 301.772 1252.85 301.75C1252.77 301.856 1252.69 301.962 1252.61 302.067C1252.73 301.917 1252.85 301.775 1252.97 301.63C1253.24 301.313 1253.42 300.984 1253.42 300.556C1253.42 300.155 1253.26 299.765 1252.97 299.481C1252.69 299.198 1252.3 299.036 1251.9 299.036C1251.47 299.036 1251.14 299.211 1250.83 299.481Z" fill="black"/>
<path d="M1226.67 279.046C1226.2 279.059 1225.64 279.011 1225.19 279.143C1224.45 279.358 1223.92 280.033 1223.92 280.811C1223.92 281.589 1224.45 282.264 1225.19 282.48C1225.64 282.612 1226.2 282.563 1226.67 282.576C1227.63 282.604 1228.44 281.753 1228.44 280.811C1228.44 279.87 1227.63 279.018 1226.67 279.046Z" fill="black"/>
<path d="M1238.14 131.995C1238.01 131.967 1237.88 131.935 1237.75 131.898C1237.58 131.853 1237.25 131.67 1237.84 131.955C1238.09 132.202 1238.34 132.449 1238.58 132.695C1238.57 132.677 1238.56 132.659 1238.55 132.641C1238.65 132.998 1238.75 133.355 1238.84 133.711C1238.84 133.089 1238.63 132.499 1238.18 132.055C1238.17 132.041 1238.15 132.026 1238.14 132.012C1237.44 131.437 1237.52 131.551 1238.38 132.355C1238.69 132.765 1238.64 133.328 1238.56 133.794C1238.59 133.619 1238.79 133.329 1238.43 134.087C1238.66 133.604 1238.71 133.418 1238.77 132.888C1238.84 132.264 1238.55 131.649 1238.13 131.207C1238.23 132.012 1238.33 132.815 1238.44 133.62C1238.81 132.893 1239.06 132.229 1238.88 131.4C1238.78 130.937 1238.33 130.483 1237.87 130.386C1236.86 130.177 1236.07 130.574 1235.31 131.208C1236.12 131.104 1236.92 131 1237.72 130.896C1236.96 130.513 1236.13 130.494 1235.39 130.951C1234.77 131.338 1234.44 131.921 1234.22 132.596C1233.99 133.282 1234.16 133.968 1234.44 134.596C1234.74 135.225 1235.37 135.6 1235.99 135.828C1236.76 136.114 1237.61 135.75 1238.18 135.247C1238.32 135.133 1238.2 135.223 1237.84 135.519C1237.5 135.613 1237.15 135.706 1236.8 135.801C1237.25 135.821 1237.71 135.734 1238.14 135.651C1239.99 135.303 1239.93 132.381 1238.14 131.995Z" fill="black"/>
<path d="M1271.65 111.383C1272.12 111.373 1272.59 111.396 1273.04 111.213C1273.3 111.138 1273.54 111.002 1273.73 110.807C1274.03 110.512 1274.2 110.107 1274.2 109.69C1274.19 109.405 1274.12 109.139 1273.98 108.893C1273.75 108.504 1273.44 108.333 1273.04 108.167C1272.59 107.984 1272.12 108.006 1271.65 107.997C1270.72 107.978 1269.95 108.781 1269.95 109.69C1269.95 110.598 1270.72 111.402 1271.65 111.383Z" fill="black"/>
<path d="M1222.28 93.0018C1221.89 93.0317 1221.54 93.0704 1221.17 93.2051C1219.76 93.7112 1220.36 95.9727 1221.79 95.4616C1222.21 95.3119 1222.49 95.1769 1222.82 94.8653C1223.11 94.583 1223.11 94.0833 1222.82 93.8012C1222.49 93.4896 1222.21 93.3549 1221.79 93.2051C1220.36 92.6936 1219.76 94.955 1221.17 95.4616C1221.54 95.5959 1221.89 95.6348 1222.28 95.6645C1224 95.7931 1224 92.8734 1222.28 93.0018Z" fill="black"/>
<path d="M1120.27 246.277C1122.42 246.277 1122.42 242.948 1120.27 242.948C1118.12 242.948 1118.12 246.277 1120.27 246.277Z" fill="black"/>
<path d="M1093.94 228.329C1093.88 228.323 1093.83 228.316 1093.77 228.31C1094.07 228.709 1094.38 229.107 1094.68 229.506C1094.73 229.297 1094.74 229.085 1094.77 228.873C1094.75 229.007 1094.73 229.141 1094.71 229.275C1094.73 229.138 1094.76 229.003 1094.79 228.868C1094.81 228.787 1094.83 228.707 1094.85 228.627C1094.9 228.366 1094.87 228.171 1094.84 227.911C1094.8 227.632 1094.47 227.304 1094.19 227.264C1093.93 227.227 1093.73 227.194 1093.47 227.255C1093.36 227.281 1093.25 227.308 1093.13 227.337C1092.86 227.403 1092.63 227.499 1092.38 227.613C1092.02 227.77 1091.75 228.201 1091.65 228.56C1091.54 228.969 1091.59 229.415 1091.81 229.78C1092.02 230.135 1092.36 230.399 1092.75 230.508C1093.25 230.645 1093.95 230.528 1094.3 230.101C1094.34 230.041 1094.39 229.982 1094.44 229.923C1094.22 230.015 1093.99 230.107 1093.77 230.199C1093.83 230.193 1093.88 230.187 1093.94 230.181C1094.44 230.126 1094.87 229.801 1094.87 229.254C1094.87 228.709 1094.44 228.384 1093.94 228.329Z" fill="black"/>
<path d="M1106.01 127.884C1106.32 127.409 1106.72 126.929 1106.82 126.368C1106.94 125.711 1106.44 125.216 1105.79 125.335C1105.23 125.438 1104.74 125.838 1104.27 126.142C1103.58 126.58 1103.41 127.544 1104.01 128.142C1104.61 128.74 1105.57 128.572 1106.01 127.884Z" fill="black"/>
<path d="M1317.72 188.825C1317.72 188.866 1317.73 188.906 1317.73 188.947C1317.17 188.237 1316 188.694 1315.79 189.458C1315.51 190.499 1316.61 191.192 1317.5 190.766C1317.71 190.664 1317.91 190.559 1318.11 190.441C1318.62 190.149 1318.62 189.383 1318.11 189.091C1317.91 188.973 1317.71 188.868 1317.5 188.766C1316.72 188.394 1315.75 188.835 1315.75 189.766C1315.75 190.689 1317.08 191.417 1317.73 190.585C1317.73 190.625 1317.72 190.666 1317.72 190.707C1318.93 190.592 1318.93 188.94 1317.72 188.825Z" fill="black"/>
<path d="M1368.17 182.554C1370.19 182.554 1370.19 179.428 1368.17 179.428C1366.16 179.428 1366.16 182.554 1368.17 182.554Z" fill="black"/>
<path d="M1359.4 149.94C1358.21 150.065 1357.27 150.733 1357.22 152.014C1357.21 152.318 1357.31 152.7 1357.47 152.964C1357.59 153.162 1357.74 153.319 1357.94 153.436C1357.66 153.28 1357.91 153.462 1357.98 153.524C1358.38 153.927 1358.83 154.166 1359.4 154.203C1359.74 154.226 1360.05 153.897 1360.04 153.567C1360.03 153.308 1360.01 153.07 1359.93 152.822C1359.91 152.736 1359.89 152.649 1359.87 152.562C1359.91 152.741 1359.87 152.417 1359.87 152.404C1359.81 152.612 1359.76 152.82 1359.7 153.028C1359.84 152.798 1359.91 152.572 1359.92 152.3C1359.92 152.208 1359.97 151.89 1359.9 152.288C1359.87 152.482 1359.68 152.622 1359.53 152.726C1359.33 152.8 1359.3 152.815 1359.45 152.772C1359.24 152.797 1359.23 152.808 1359.4 152.806C1360.18 152.828 1360.83 152.137 1360.83 151.373C1360.83 150.654 1360.18 149.859 1359.4 149.94Z" fill="black"/>
<path d="M1369.49 212.801C1369.43 212.154 1369.46 211.377 1368.79 211.015C1368.95 211.415 1369.11 211.816 1369.28 212.216C1369.28 212.194 1369.28 212.173 1369.29 212.152C1369.19 212.365 1369.16 212.428 1369.21 212.343C1369.26 212.266 1369.22 212.317 1369.09 212.497C1369.14 212.439 1369.27 212.363 1368.96 212.589C1368.99 212.568 1369.03 212.55 1369.06 212.533C1369.12 212.501 1369.25 212.449 1368.96 212.569C1369.02 212.547 1369.07 212.528 1369.12 212.509C1369.29 212.445 1369.45 212.378 1369.6 212.267C1370.02 211.959 1370.02 211.451 1369.6 211.143C1369 210.696 1368.05 210.636 1367.5 211.181C1367.75 211.077 1368 210.973 1368.25 210.869C1367.68 210.795 1367.11 211.353 1366.98 211.887C1366.9 212.182 1366.89 212.498 1366.86 212.801C1366.79 213.517 1367.51 214.118 1368.17 214.118C1368.84 214.118 1369.56 213.517 1369.49 212.801Z" fill="black"/>
<path d="M1391.18 208.854C1391.08 209.05 1390.98 209.246 1390.88 209.443C1390.23 210.694 1392.12 211.8 1392.77 210.546C1392.97 210.145 1393.1 209.853 1393.03 209.389C1392.99 209.127 1392.69 208.832 1392.43 208.79C1391.96 208.716 1391.67 208.844 1391.27 209.051C1391.64 209.68 1392.01 210.309 1392.37 210.938C1392.57 210.837 1392.77 210.737 1392.96 210.636C1394.9 209.642 1392.18 206.916 1391.18 208.854Z" fill="black"/>
<path d="M1395.6 144.853C1397.09 144.853 1397.09 142.537 1395.6 142.537C1394.11 142.537 1394.11 144.853 1395.6 144.853Z" fill="black"/>
<path d="M1361.88 116.692C1361.59 116.419 1361.28 116.097 1360.94 115.882C1360.5 115.611 1359.99 115.55 1359.53 115.782C1359.13 115.982 1358.92 116.469 1358.94 116.898C1358.97 117.333 1359.06 117.781 1359.4 118.083C1359.73 118.379 1360.17 118.379 1360.5 118.083C1360.75 117.864 1360.83 117.602 1360.91 117.298C1360.92 117.264 1360.93 117.232 1360.94 117.199C1360.99 117.055 1360.82 117.468 1360.88 117.346C1360.94 117.226 1360.68 117.585 1360.76 117.496C1360.43 117.843 1359.97 117.823 1359.57 117.648C1359.69 117.7 1359.31 117.433 1359.42 117.528C1359.44 117.548 1359.46 117.571 1359.48 117.593C1359.53 117.656 1359.59 117.716 1359.65 117.775C1359.84 117.966 1360.02 118.17 1360.21 118.37C1360.64 118.848 1361.44 118.812 1361.88 118.37C1362.33 117.928 1362.36 117.128 1361.88 116.692Z" fill="black"/>
<path d="M1227.55 385.309C1227.74 385.186 1227.94 385.063 1228.13 384.939C1228.89 384.458 1228.89 383.385 1228.13 382.904C1227.94 382.781 1227.74 382.658 1227.55 382.535C1226.51 381.876 1225.13 382.737 1225.13 383.922C1225.13 385.106 1226.51 385.968 1227.55 385.309Z" fill="black"/>
<path d="M1098.46 315.061C1098.22 315.305 1097.99 315.548 1097.77 315.801C1097.49 316.133 1097.43 316.217 1097.6 316.052C1097.58 316.069 1097.57 316.086 1097.55 316.104C1096.3 317.597 1098.44 319.762 1099.7 318.256C1100.2 317.667 1100.82 317.091 1100.82 316.266C1100.81 315.569 1100.24 314.995 1099.54 314.992C1098.72 314.989 1098.14 315.61 1097.55 316.104C1096.05 317.367 1098.21 319.508 1099.7 318.256C1099.78 318.192 1099.79 318.224 1099.69 318.286C1100.08 318.051 1100.42 317.664 1100.75 317.353C1102.27 315.917 1099.89 313.538 1098.46 315.061Z" fill="black"/>
<path d="M1189.48 398.643C1189.5 398.919 1189.5 399.242 1189.57 399.506C1189.71 400.017 1190.1 400.384 1190.59 400.552C1190.37 400.384 1190.16 400.216 1189.94 400.049C1190 400.18 1190.07 400.341 1190.19 400.435C1190.09 400.203 1189.99 399.972 1189.9 399.74V399.74C1189.9 400.276 1190.35 400.724 1190.88 400.724C1191.42 400.724 1191.87 400.276 1191.87 399.74V399.74C1191.77 399.972 1191.67 400.203 1191.58 400.435C1191.69 400.341 1191.76 400.18 1191.83 400.049C1191.61 400.216 1191.39 400.384 1191.17 400.552C1191.67 400.384 1192.06 400.017 1192.2 399.506C1192.27 399.242 1192.26 398.919 1192.29 398.643C1192.35 397.879 1191.6 397.239 1190.88 397.239C1190.17 397.239 1189.41 397.879 1189.48 398.643Z" fill="black"/>
<path d="M1229.45 413.861C1228.94 414.419 1228.28 414.963 1228.24 415.774C1228.21 416.479 1228.88 417.152 1229.58 417.117C1230.39 417.077 1230.94 416.42 1231.5 415.907C1232.08 415.374 1232.04 414.4 1231.5 413.861C1230.96 413.321 1229.98 413.279 1229.45 413.861Z" fill="black"/>
<path d="M1160.35 415.053C1160.08 415.061 1159.75 415.031 1159.5 415.114C1159.13 415.238 1158.68 415.472 1158.51 415.847C1158.99 415.654 1159.46 415.462 1159.93 415.269C1160.23 415.324 1160.65 415.742 1160.7 416.051C1160.72 416.159 1160.73 416.268 1160.75 416.376C1160.74 416.267 1160.8 416.173 1160.71 416.62C1160.72 416.594 1160.73 416.569 1160.74 416.544C1160.57 417.001 1160.7 416.647 1160.76 416.527C1160.82 416.422 1160.88 416.318 1160.94 416.214C1161.08 415.962 1161.07 415.706 1161.06 415.433C1161.04 415.03 1160.75 414.746 1160.35 414.724C1160.26 414.718 1160.16 414.712 1160.07 414.71C1159.8 414.706 1159.58 414.839 1159.35 414.974C1159.15 415.1 1158.95 415.242 1158.76 415.396C1158.19 415.864 1158.12 416.881 1158.71 417.37C1158.59 417.073 1158.46 416.777 1158.34 416.481C1158.29 416.961 1158.69 417.583 1159.15 417.786C1159.38 417.918 1159.63 417.985 1159.89 417.986C1159.94 417.989 1159.98 417.991 1160.02 417.993C1160.13 417.999 1160.24 418.001 1160.35 418.005C1161.15 418.03 1161.83 417.315 1161.83 416.529C1161.82 415.743 1161.15 415.028 1160.35 415.053Z" fill="black"/>
<path d="M1139.86 401.272C1140.52 401.27 1141.11 400.903 1141.15 400.184C1141.18 399.769 1140.9 399.397 1140.59 399.156C1140.13 398.803 1139.61 398.413 1139.03 398.308C1138.62 398.232 1138.21 398.352 1137.99 398.734C1137.78 399.087 1137.83 399.571 1138.13 399.858C1138.27 399.994 1138.41 400.129 1138.59 400.224C1138.77 400.323 1138.95 400.427 1139.13 400.538C1139.21 400.587 1139.29 400.639 1139.36 400.692C1139.53 400.812 1139.17 400.541 1139.28 400.631C1139.32 400.659 1139.35 400.688 1139.38 400.72C1139.5 400.841 1139.23 400.499 1139.29 400.6C1139.33 400.681 1139.31 400.617 1139.21 400.407C1139.1 400.099 1139.25 399.761 1139.45 399.53C1139.55 399.423 1139.68 399.349 1139.83 399.309C1139.81 399.314 1139.8 399.318 1139.78 399.322C1139.69 399.34 1139.75 399.332 1139.97 399.299C1139.93 399.303 1139.89 399.303 1139.86 399.304C1139.32 399.315 1138.88 399.744 1138.88 400.288C1138.88 400.823 1139.32 401.275 1139.86 401.272Z" fill="black"/>
<path d="M1139.7 291.702C1139.28 292.156 1138.84 292.599 1138.6 293.18C1138.54 293.332 1138.52 293.729 1138.57 293.905C1138.65 293.604 1138.73 293.304 1138.81 293.003L1138.81 293.004C1138.45 293.361 1138.45 293.957 1138.81 294.314C1139.17 294.67 1139.76 294.67 1140.12 294.314L1140.12 294.313C1139.82 294.393 1139.52 294.472 1139.22 294.551C1139.39 294.602 1139.5 294.581 1139.65 294.562C1139.9 294.533 1140.1 294.495 1140.3 294.351C1140.38 294.298 1140.46 294.244 1140.54 294.19C1140.86 293.968 1141.14 293.687 1141.42 293.421C1141.91 292.97 1141.88 292.157 1141.42 291.702C1140.97 291.246 1140.15 291.216 1139.7 291.702Z" fill="black"/>
<path d="M1244.65 324.023C1244.43 324.262 1244.19 324.496 1243.98 324.754C1243.65 325.174 1243.48 325.559 1243.72 326.105C1243.84 326.392 1244.2 326.546 1244.5 326.553C1244.33 326.549 1244.17 326.528 1244.55 326.561C1244.57 326.562 1244.59 326.562 1244.61 326.561C1244.74 326.553 1244.86 326.532 1244.98 326.497C1245.27 326.416 1245.54 326.312 1245.69 326.038C1245.91 325.64 1245.57 325.284 1245.22 325.15C1245.18 325.134 1245.13 325.117 1245.09 325.101C1245.31 325.187 1245.15 325.128 1245.11 325.104C1245.08 325.093 1245.06 325.079 1245.04 325.065C1244.97 325.021 1245.01 325.051 1245.15 325.155C1245.1 325.099 1245.13 325.142 1245.25 325.286C1245.21 325.627 1245.16 325.967 1245.12 326.307C1245.18 326.238 1245.24 326.17 1245.28 326.093C1245.33 326.02 1245.36 325.941 1245.38 325.858C1245.3 326.044 1245.27 326.098 1245.31 326.019C1245.33 325.994 1245.34 325.972 1245.36 325.949C1245.17 326.219 1245.28 326.052 1245.34 325.991C1245.54 325.767 1245.77 325.562 1245.98 325.354C1246.35 325 1246.34 324.38 1245.98 324.023C1245.63 323.667 1245.01 323.653 1244.65 324.023Z" fill="black"/>
<path d="M1318.52 351.015C1318.58 352.071 1319.1 352.861 1320.1 353.245C1320.8 353.515 1321.97 353.614 1322.63 353.216C1323.46 352.711 1323.45 351.514 1322.63 351.007C1322.31 350.81 1321.98 350.77 1321.62 350.758C1321.5 350.754 1321.39 350.746 1321.27 350.736C1320.89 350.707 1321.55 350.791 1321.2 350.723C1321.13 350.708 1321.07 350.691 1321.01 350.671C1321.31 350.761 1321.1 350.712 1321 350.652C1321.18 350.766 1321.23 350.875 1321.31 351.066C1321.19 350.783 1321.31 351.371 1321.3 351.015C1321.28 350.258 1320.68 349.626 1319.91 349.626C1319.18 349.626 1318.48 350.258 1318.52 351.015Z" fill="black"/>
<path d="M1276.03 391.135C1275.89 391.14 1275.75 391.151 1275.61 391.14C1275.87 391.211 1276.13 391.281 1276.39 391.352C1276.38 391.343 1276.36 391.335 1276.35 391.326C1276.52 391.97 1276.69 392.614 1276.86 393.258C1277.21 392.734 1277.24 391.855 1276.87 391.329C1276.58 390.92 1275.98 390.647 1275.52 390.976C1275.39 391.066 1275.27 391.151 1275.15 391.252C1275.47 390.979 1275.27 391.157 1275.15 391.211C1275.25 391.167 1275.36 391.123 1275.46 391.079C1275.28 391.156 1275.09 391.214 1274.92 391.326C1275.04 391.279 1275.15 391.232 1275.26 391.184C1275.24 391.188 1275.22 391.192 1275.2 391.196C1274.53 391.316 1274.06 392.048 1274.06 392.689C1274.06 392.968 1274.13 393.229 1274.27 393.471C1274.45 393.782 1274.82 394.127 1275.2 394.182C1275.48 394.225 1275.75 394.251 1276.03 394.261C1276.89 394.29 1277.6 393.528 1277.6 392.698C1277.6 391.868 1276.89 391.106 1276.03 391.135Z" fill="black"/>
<path d="M1322.1 333.069C1321.76 333.079 1321.41 333.089 1321.06 333.098C1320.26 333.12 1319.6 333.746 1319.6 334.56C1319.6 335.374 1320.26 336 1321.06 336.022C1321.41 336.031 1321.76 336.041 1322.1 336.051C1322.92 336.073 1323.59 335.356 1323.59 334.56C1323.59 333.764 1322.92 333.047 1322.1 333.069Z" fill="black"/>
<path d="M1274.94 323.653C1275.02 323.653 1275.02 323.529 1274.94 323.529C1274.86 323.529 1274.86 323.653 1274.94 323.653Z" fill="black"/>
<path d="M1360.5 314.861C1360.55 314.861 1360.55 314.774 1360.5 314.774C1360.44 314.774 1360.44 314.861 1360.5 314.861Z" fill="black"/>
<path d="M1333.07 390.567C1333.15 390.567 1333.15 390.443 1333.07 390.443C1332.99 390.443 1332.99 390.567 1333.07 390.567Z" fill="black"/>
<path d="M1281.52 348.884C1281.6 348.884 1281.6 348.759 1281.52 348.759C1281.44 348.759 1281.44 348.884 1281.52 348.884Z" fill="black"/>
<path d="M1373.66 303.624C1373.34 303.597 1373.01 303.567 1372.69 303.559C1369.49 303.485 1369.49 308.447 1372.69 308.521C1373.01 308.529 1373.34 308.536 1373.66 308.544C1376.89 308.619 1376.89 303.462 1373.66 303.537C1373.34 303.544 1373.01 303.552 1372.69 303.559C1369.49 303.634 1369.49 308.596 1372.69 308.521C1373.01 308.514 1373.34 308.484 1373.66 308.457C1376.77 308.2 1376.77 303.881 1373.66 303.624Z" fill="black"/>
<path d="M1295 326.101C1295.17 325.904 1295.35 325.729 1295.55 325.559C1296.03 325.153 1296.03 324.225 1295.55 323.819C1295.35 323.65 1295.17 323.475 1295 323.277C1294.53 322.753 1293.71 322.583 1293.05 322.763C1292.2 322.999 1291.59 323.801 1291.59 324.689C1291.59 325.393 1291.97 326.058 1292.57 326.414C1293.31 326.846 1294.41 326.767 1295 326.101Z" fill="black"/>
<path d="M1294.51 368.565C1294.5 368.425 1294.48 368.285 1294.46 368.145C1294.43 367.873 1294.4 367.599 1294.35 367.33C1294.3 367.009 1293.98 366.546 1293.75 366.331C1293.02 365.651 1291.96 365.651 1291.23 366.331C1291.06 366.485 1290.94 366.676 1290.82 366.868C1290.58 367.249 1290.57 367.674 1290.52 368.102C1290.5 368.256 1290.48 368.41 1290.46 368.564C1290.4 369.066 1290.71 369.656 1291.06 369.997C1291.43 370.375 1291.95 370.591 1292.49 370.591C1293.02 370.591 1293.54 370.375 1293.92 369.997C1294.26 369.657 1294.58 369.066 1294.51 368.565Z" fill="black"/>
<path d="M1166.68 214.945C1166.35 214.808 1166 214.494 1165.65 214.427C1165.13 214.327 1164.61 214.211 1164.08 214.097C1163 213.858 1161.84 213.885 1160.73 213.812C1158.4 213.658 1156.08 213.358 1153.82 212.773C1151.62 212.207 1150.8 215.39 1152.89 216.122C1156.62 217.426 1160.11 219.307 1163.83 220.61C1165.13 221.062 1166.54 219.632 1166.1 218.346C1164.93 214.934 1162.66 212.356 1160.15 209.847C1159.13 208.825 1157.48 209.358 1157.05 210.664C1155.75 214.647 1154.83 219.022 1154.79 223.224C1154.78 225.01 1157.39 225.83 1158.24 224.159C1159.19 222.297 1160.48 220.569 1161.67 218.858C1162.35 217.874 1163.05 216.899 1163.77 215.944C1163.91 215.768 1163.92 215.758 1163.79 215.914C1163.86 215.833 1163.92 215.752 1163.99 215.671C1164.1 215.531 1164.21 215.394 1164.33 215.258C1164.42 215.153 1164.51 215.053 1164.6 214.954C1164.64 214.918 1164.67 214.882 1164.71 214.848C1164.6 214.949 1163.99 215.307 1163.6 215.267C1163.16 215.088 1162.73 214.908 1162.3 214.728C1162.3 214.733 1162.31 214.736 1162.31 214.741C1162.15 214.47 1162 214.2 1161.84 213.929C1161.73 213.654 1161.78 213.444 1161.83 213.182C1161.78 213.43 1161.73 213.674 1161.72 213.929C1161.65 215.449 1163.69 216.259 1164.71 215.168C1165.3 214.54 1165.5 213.82 1165.39 212.976C1165.22 211.724 1163.56 211.27 1162.59 211.844C1161.55 212.46 1160.82 213.743 1160.12 214.68C1158.33 217.092 1156.42 219.607 1155.05 222.289C1156.2 222.601 1157.35 222.913 1158.5 223.224C1158.53 219.336 1159.42 215.332 1160.62 211.65C1159.59 211.922 1158.56 212.195 1157.53 212.467C1159.56 214.502 1161.55 216.565 1162.55 219.325C1163.3 218.57 1164.06 217.816 1164.81 217.061C1161.07 215.826 1157.56 214.009 1153.82 212.773C1153.51 213.89 1153.2 215.006 1152.89 216.123C1155.34 216.674 1157.84 216.917 1160.35 217.032C1161.46 217.083 1162.58 217.137 1163.69 217.013C1164.81 216.888 1165.67 216.565 1166.68 216.146C1167.27 215.901 1167.27 215.189 1166.68 214.945Z" fill="black"/>
<path d="M1181.87 80.8349C1179.45 80.9353 1177.07 81.9081 1174.85 82.8195C1173.57 83.3481 1172.28 83.8656 1170.97 84.3416C1169.57 84.8522 1168.02 85.4725 1166.52 85.5659C1164.72 85.6777 1164.69 88.3506 1166.52 88.3734C1172.12 88.4424 1177.37 89.7465 1182.55 91.7961C1183.2 92.0552 1184.01 91.6302 1184.35 91.0643C1184.82 90.25 1184.47 89.406 1183.77 88.8857C1179.39 85.5904 1175 82.2992 1170.62 78.9968C1169.38 78.0624 1168.01 79.5952 1168.25 80.8169C1169.38 86.3893 1171.48 91.709 1172.6 97.2837C1172.92 98.9278 1175.4 98.8134 1175.8 97.2837C1176.57 94.3268 1177.77 91.4705 1178.94 88.6512C1179.47 87.3581 1180.06 86.0844 1180.56 84.7761C1180.9 83.8785 1181.18 82.9187 1180.67 82.0223C1180.67 82.4119 1180.67 82.8015 1180.67 83.1908C1180.67 83.183 1180.68 83.1747 1180.68 83.1664C1181.28 81.8144 1179.29 80.6354 1178.68 81.9976C1178.68 82.0056 1178.67 82.014 1178.67 82.0223C1178.9 81.845 1179.13 81.6675 1179.36 81.4903C1178.44 81.6962 1177.92 82.5141 1177.54 83.2978C1176.88 84.6603 1176.33 86.0794 1175.76 87.4827C1174.58 90.3933 1173.36 93.3497 1172.6 96.4018C1173.66 96.4018 1174.73 96.4018 1175.8 96.4018C1174.62 90.8389 1172.52 85.5261 1171.36 79.9601C1170.57 80.5671 1169.78 81.1735 1168.99 81.7802C1173.39 85.0598 1177.78 88.3499 1182.17 91.6354C1182.58 90.6654 1182.99 89.6952 1183.39 88.725C1178.06 86.6247 1172.24 85.5555 1166.52 85.5659C1166.64 86.4849 1166.77 87.4039 1166.89 88.3233C1168.19 87.8473 1169.54 87.5275 1170.85 87.0596C1172.27 86.5525 1173.65 85.9567 1175.03 85.3614C1177.45 84.3191 1179.86 83.2326 1182.2 82.0484C1182.78 81.7563 1182.51 80.8086 1181.87 80.8349Z" fill="black"/>
<path d="M1347.04 123.899C1344.76 123.043 1342.13 123.033 1339.73 123.007C1336.9 122.976 1333.66 123.18 1330.96 122.233C1329.47 121.709 1328.42 124.162 1329.88 124.799C1335.01 127.042 1339.36 130.252 1343.33 134.16C1344.62 135.433 1346.74 133.806 1345.83 132.231C1343.08 127.486 1340.32 122.744 1337.58 117.997C1336.91 116.846 1334.92 116.982 1334.63 118.382C1333.5 123.951 1333.36 129.666 1332.21 135.232C1331.81 137.171 1334.12 137.973 1335.24 136.511C1337.03 134.188 1339.32 132.018 1341.44 129.929C1342.42 128.969 1343.43 128.042 1344.37 127.052C1344.98 126.422 1345.66 125.65 1345.56 124.699C1345.45 124.972 1345.33 125.245 1345.22 125.518C1345.23 125.512 1345.23 125.506 1345.24 125.499C1346.33 124.478 1344.69 122.844 1343.6 123.862C1343.6 123.868 1343.59 123.875 1343.58 123.881C1343.96 123.782 1344.33 123.682 1344.71 123.583C1342.51 123.192 1340.4 126.147 1339.03 127.517C1336.7 129.844 1334.36 132.205 1332.38 134.836C1333.39 135.262 1334.4 135.689 1335.41 136.115C1336.5 130.533 1336.63 124.817 1337.74 119.239C1336.76 119.367 1335.78 119.495 1334.79 119.624C1337.56 124.357 1340.32 129.099 1343.08 133.838C1343.91 133.195 1344.75 132.552 1345.58 131.909C1341.38 127.79 1336.37 124.511 1330.96 122.234C1330.84 123.153 1330.71 124.072 1330.59 124.991C1333.37 125.13 1336.1 125.455 1338.9 125.437C1341.56 125.42 1344.22 125.356 1346.87 125.178C1347.62 125.127 1347.73 124.157 1347.04 123.899Z" fill="black"/>
<path d="M1272.38 332.762C1270.81 332.504 1269.14 332.741 1267.59 333.024C1265.53 333.398 1263.15 334.081 1261.05 333.794C1259.82 333.626 1259.23 335.423 1260.52 335.715C1264.36 336.588 1267.92 338.195 1271.15 340.437C1272.27 341.209 1273.32 339.578 1272.52 338.663C1269.96 335.729 1267.4 332.799 1264.85 329.861C1264.17 329.084 1262.9 329.727 1262.89 330.67C1262.87 334.704 1263.52 338.705 1263.49 342.739C1263.48 343.871 1265.14 344.401 1265.68 343.334C1266.65 341.408 1267.89 339.615 1269.11 337.839C1269.67 337.02 1270.27 336.223 1270.8 335.388C1271 335.083 1271.26 334.764 1271.36 334.409C1271.41 334.234 1271.4 334.081 1271.4 333.908C1271.39 333.586 1271.48 333.784 1271.28 334.061C1271.9 333.201 1270.48 332.382 1269.86 333.232C1270.21 332.747 1270.43 332.829 1269.94 332.985C1269.51 333.121 1269.29 333.44 1269.02 333.776C1268.37 334.618 1267.78 335.5 1267.18 336.383C1265.92 338.242 1264.64 340.128 1263.65 342.145C1264.38 342.343 1265.11 342.541 1265.84 342.739C1265.84 338.704 1265.17 334.705 1265.18 330.67C1264.53 330.94 1263.88 331.209 1263.23 331.479C1265.8 334.403 1268.36 337.332 1270.92 340.261C1271.38 339.669 1271.84 339.078 1272.29 338.486C1268.82 336.305 1265.07 334.646 1261.05 333.794C1261.05 334.435 1261.05 335.075 1261.05 335.716C1262.99 335.445 1264.9 335.301 1266.83 334.917C1268.69 334.546 1270.55 334.145 1272.38 333.654C1272.79 333.541 1272.84 332.838 1272.38 332.762Z" fill="black"/>
<path d="M1064.84 183.714C1063.27 183.457 1061.61 183.694 1060.05 183.976C1057.99 184.35 1055.62 185.033 1053.51 184.747C1052.28 184.579 1051.7 186.376 1052.98 186.668C1056.83 187.54 1060.38 189.147 1063.62 191.389C1064.73 192.16 1065.79 190.53 1064.99 189.614C1062.43 186.681 1059.87 183.751 1057.31 180.814C1056.64 180.036 1055.37 180.679 1055.36 181.623C1055.33 185.656 1055.99 189.657 1055.95 193.691C1055.94 194.823 1057.61 195.352 1058.14 194.285C1059.11 192.36 1060.36 190.566 1061.57 188.791C1062.13 187.972 1062.73 187.176 1063.27 186.341C1063.46 186.036 1063.73 185.717 1063.82 185.362C1063.87 185.187 1063.86 185.033 1063.86 184.861C1063.85 184.538 1063.94 184.737 1063.74 185.014C1064.37 184.154 1062.94 183.335 1062.32 184.185C1062.67 183.7 1062.89 183.782 1062.4 183.938C1061.97 184.074 1061.75 184.393 1061.49 184.729C1060.83 185.571 1060.24 186.452 1059.64 187.336C1058.39 189.194 1057.1 191.079 1056.11 193.097C1056.84 193.294 1057.57 193.493 1058.31 193.691C1058.3 189.656 1057.64 185.657 1057.65 181.623C1057 181.892 1056.35 182.162 1055.69 182.431C1058.26 185.355 1060.82 188.284 1063.39 191.212C1063.85 190.621 1064.3 190.029 1064.76 189.438C1061.28 187.256 1057.54 185.597 1053.51 184.747C1053.51 185.387 1053.51 186.027 1053.51 186.668C1055.45 186.398 1057.37 186.254 1059.3 185.869C1061.15 185.498 1063.02 185.098 1064.84 184.606C1065.26 184.493 1065.31 183.791 1064.84 183.714Z" fill="black"/>
<path d="M1069.02 281.845C1067.42 281.632 1065.86 282.396 1064.25 282.266C1063.78 282.228 1063.69 282.973 1064.14 283.079C1065.73 283.451 1067.24 284.089 1068.56 285.04C1069.02 285.369 1069.46 284.682 1069.13 284.303C1068.07 283.085 1067 281.867 1065.94 280.647C1065.66 280.326 1065.13 280.59 1065.13 280.983C1065.13 282.659 1065.38 284.321 1065.37 285.997C1065.37 286.468 1066.06 286.685 1066.29 286.243C1066.74 285.359 1067.31 284.535 1067.88 283.718C1068.1 283.402 1068.32 283.09 1068.53 282.768C1068.6 282.657 1068.67 282.554 1068.66 282.416C1068.66 282.144 1068.76 282.189 1068.61 282.391C1068.87 282.034 1068.28 281.694 1068.02 282.047C1068.14 281.887 1068.42 281.83 1068.12 281.923C1068.02 281.954 1067.9 281.986 1067.83 282.072C1067.59 282.383 1067.36 282.697 1067.14 283.022C1066.53 283.902 1065.92 284.794 1065.44 285.75C1065.74 285.832 1066.05 285.914 1066.35 285.997C1066.34 284.321 1066.09 282.659 1066.08 280.983C1065.81 281.095 1065.54 281.207 1065.27 281.319C1066.34 282.533 1067.4 283.751 1068.46 284.967C1068.65 284.721 1068.84 284.475 1069.03 284.23C1067.54 283.355 1066.06 282.653 1064.36 282.281C1064.33 282.552 1064.29 282.823 1064.25 283.094C1065.89 282.92 1067.48 282.641 1069.07 282.223C1069.3 282.162 1069.22 281.872 1069.02 281.845Z" fill="black"/>
<path d="M1374.26 278.282C1370.95 277.747 1367.7 279.568 1364.39 279.13C1363.44 279.004 1363.25 280.586 1364.17 280.796C1367.43 281.541 1370.48 282.894 1373.22 284.815C1374.16 285.477 1375.06 284.082 1374.38 283.304C1372.21 280.807 1370.02 278.312 1367.85 275.813C1367.27 275.152 1366.19 275.697 1366.19 276.501C1366.17 279.935 1366.72 283.341 1366.69 286.775C1366.68 287.739 1368.1 288.189 1368.56 287.281C1369.4 285.607 1370.49 284.048 1371.54 282.504C1372 281.833 1372.49 281.179 1372.93 280.495C1373.09 280.249 1373.31 279.988 1373.39 279.703C1373.43 279.547 1373.43 279.402 1373.42 279.246C1373.42 279.002 1373.48 279.171 1373.32 279.388C1373.85 278.656 1372.64 277.959 1372.12 278.682C1372.41 278.272 1372.57 278.348 1372.17 278.477C1371.82 278.589 1371.65 278.831 1371.44 279.105C1370.9 279.793 1370.41 280.511 1369.92 281.233C1368.82 282.858 1367.7 284.506 1366.83 286.269C1367.45 286.438 1368.07 286.606 1368.7 286.775C1368.69 283.34 1368.13 279.936 1368.13 276.501C1367.58 276.731 1367.03 276.96 1366.47 277.19C1368.66 279.678 1370.84 282.172 1373.02 284.665C1373.41 284.161 1373.8 283.657 1374.19 283.154C1371.21 281.313 1368.06 279.892 1364.62 279.16C1364.62 279.706 1364.62 280.251 1364.62 280.796C1367.87 280.343 1371.07 279.906 1374.26 279.041C1374.61 278.945 1374.66 278.346 1374.26 278.282Z" fill="black"/>
<path d="M1263.24 207.801C1259.93 207.266 1256.68 209.089 1253.37 208.649C1252.42 208.522 1252.23 210.105 1253.15 210.315C1256.41 211.06 1259.46 212.413 1262.2 214.334C1263.14 214.997 1264.04 213.602 1263.36 212.824C1261.19 210.327 1259.01 207.832 1256.83 205.332C1256.26 204.671 1255.17 205.217 1255.17 206.021C1255.15 209.455 1255.7 212.861 1255.67 216.295C1255.66 217.259 1257.08 217.708 1257.54 216.801C1258.38 215.127 1259.47 213.568 1260.53 212.024C1260.99 211.353 1261.48 210.699 1261.92 210.014C1262.07 209.768 1262.29 209.508 1262.37 209.222C1262.42 209.066 1262.41 208.922 1262.41 208.766C1262.4 208.522 1262.46 208.69 1262.31 208.908C1262.84 208.175 1261.62 207.479 1261.1 208.202C1261.39 207.792 1261.55 207.867 1261.15 207.996C1260.8 208.109 1260.63 208.351 1260.42 208.624C1259.88 209.313 1259.39 210.031 1258.9 210.753C1257.8 212.378 1256.68 214.025 1255.81 215.789C1256.43 215.958 1257.05 216.126 1257.67 216.295C1257.67 212.86 1257.11 209.456 1257.12 206.021C1256.56 206.251 1256.01 206.48 1255.45 206.71C1257.64 209.198 1259.82 211.692 1262 214.184C1262.39 213.681 1262.78 213.177 1263.17 212.674C1260.19 210.835 1257.04 209.412 1253.6 208.68C1253.6 209.225 1253.6 209.771 1253.6 210.316C1256.86 209.861 1260.05 209.426 1263.24 208.561C1263.59 208.464 1263.64 207.866 1263.24 207.801Z" fill="black"/>
<path d="M1075.26 380.407C1072.32 379.939 1069.44 381.533 1066.5 381.16C1065.65 381.052 1065.49 382.451 1066.3 382.638C1069.19 383.302 1071.91 384.491 1074.33 386.205C1075.17 386.796 1075.97 385.554 1075.37 384.864C1073.44 382.648 1071.5 380.435 1069.57 378.215C1069.06 377.628 1068.1 378.113 1068.09 378.826C1068.08 381.874 1068.56 384.897 1068.54 387.945C1068.53 388.801 1069.79 389.199 1070.2 388.394C1070.97 386.867 1071.96 385.446 1072.93 384.039C1073.37 383.397 1073.83 382.768 1074.25 382.114C1074.41 381.86 1074.52 381.625 1074.52 381.315C1074.51 380.856 1074.7 381.012 1074.43 381.389C1074.9 380.739 1073.82 380.121 1073.36 380.763C1073.35 380.766 1073.35 380.769 1073.35 380.773C1073.53 380.67 1073.71 380.568 1073.88 380.465C1072.77 380.478 1072.04 382.105 1071.5 382.885C1070.49 384.373 1069.46 385.881 1068.66 387.496C1069.21 387.646 1069.77 387.796 1070.32 387.945C1070.31 384.897 1069.82 381.875 1069.82 378.827C1069.33 379.03 1068.84 379.234 1068.35 379.438C1070.29 381.647 1072.22 383.86 1074.16 386.072C1074.51 385.625 1074.85 385.178 1075.19 384.731C1072.53 383.11 1069.76 381.842 1066.7 381.187C1066.7 381.671 1066.7 382.155 1066.7 382.639C1069.59 382.24 1072.43 381.855 1075.26 381.081C1075.57 380.995 1075.61 380.464 1075.26 380.407Z" fill="black"/>
<path d="M1356.4 405.096C1353.46 404.628 1350.58 406.222 1347.64 405.849C1346.79 405.741 1346.63 407.14 1347.44 407.327C1350.33 407.991 1353.05 409.18 1355.47 410.894C1356.31 411.485 1357.11 410.243 1356.51 409.553C1354.58 407.337 1352.64 405.124 1350.71 402.904C1350.2 402.317 1349.24 402.802 1349.24 403.515C1349.22 406.563 1349.71 409.586 1349.68 412.634C1349.68 413.489 1350.93 413.888 1351.34 413.083C1352.11 411.556 1353.1 410.135 1354.07 408.727C1354.51 408.086 1354.97 407.456 1355.39 406.802C1355.55 406.549 1355.66 406.314 1355.66 406.004C1355.65 405.545 1355.84 405.701 1355.57 406.078C1356.04 405.428 1354.96 404.81 1354.5 405.452C1354.49 405.455 1354.49 405.458 1354.49 405.462C1354.67 405.359 1354.85 405.257 1355.02 405.154C1353.91 405.167 1353.18 406.793 1352.65 407.574C1351.63 409.061 1350.6 410.57 1349.8 412.185C1350.36 412.335 1350.91 412.485 1351.46 412.634C1351.45 409.586 1350.96 406.564 1350.96 403.516C1350.47 403.719 1349.98 403.923 1349.49 404.127C1351.43 406.336 1353.36 408.549 1355.3 410.761C1355.65 410.314 1355.99 409.867 1356.34 409.42C1353.67 407.798 1350.9 406.531 1347.84 405.876C1347.84 406.36 1347.84 406.844 1347.84 407.328C1350.73 406.929 1353.58 406.544 1356.4 405.77C1356.71 405.684 1356.75 405.153 1356.4 405.096Z" fill="black"/>
<path d="M1194.52 175.544C1195.43 175.544 1195.43 174.125 1194.52 174.125C1193.6 174.125 1193.6 175.544 1194.52 175.544Z" fill="black"/>
<path d="M1123.41 179.051C1123.27 179.017 1123.13 178.989 1123 178.938C1123.09 178.974 1123.17 179.01 1123.26 179.046C1123.24 179.036 1123.21 179.025 1123.19 179.009C1123.26 179.066 1123.34 179.123 1123.41 179.18C1123.41 179.175 1123.4 179.17 1123.4 179.164C1123.45 179.238 1123.51 179.312 1123.57 179.386C1123.56 179.381 1123.56 179.375 1123.56 179.37C1123.59 179.457 1123.63 179.545 1123.67 179.633C1123.67 179.63 1123.67 179.627 1123.67 179.624C1123.68 179.722 1123.69 179.819 1123.71 179.917C1123.7 179.911 1123.7 179.905 1123.71 179.899C1123.69 179.997 1123.68 180.095 1123.67 180.193C1123.67 180.186 1123.67 180.18 1123.67 180.173C1123.41 180.433 1123.15 180.692 1122.89 180.951C1122.9 180.951 1122.9 180.95 1122.9 180.95C1122.7 180.95 1122.5 180.95 1122.3 180.95C1122.3 180.95 1122.3 180.95 1122.3 180.95C1123 181.19 1123.76 180.56 1123.74 179.852C1123.74 179.547 1123.63 179.243 1123.41 179.031C1123.51 179.29 1123.62 179.549 1123.73 179.808C1123.72 179.726 1123.73 179.645 1123.74 179.564C1123.73 179.645 1123.72 179.725 1123.71 179.805C1123.74 179.613 1123.75 179.44 1123.76 179.249C1123.76 178.923 1123.47 178.634 1123.15 178.641C1122.88 178.646 1122.59 178.654 1122.34 178.749C1122.53 178.749 1122.73 178.749 1122.92 178.749C1122.92 178.748 1122.92 178.747 1122.91 178.746C1122.53 178.59 1122.1 178.795 1121.81 179.037C1121.81 179.04 1121.8 179.043 1121.8 179.046C1121.58 179.233 1121.47 179.572 1121.47 179.852C1121.47 180.222 1121.68 180.672 1122.03 180.835C1122.03 180.835 1122.03 180.836 1122.03 180.836C1121.96 180.778 1121.88 180.719 1121.81 180.66C1121.81 180.661 1121.81 180.663 1121.81 180.664C1121.7 180.402 1121.59 180.139 1121.48 179.877C1121.52 180.206 1121.6 180.462 1121.83 180.704C1122.05 180.941 1122.35 181.024 1122.67 181.046C1122.9 181.063 1123.17 180.978 1123.41 180.921C1123.82 180.818 1124.12 180.408 1124.12 179.985C1124.12 179.563 1123.82 179.153 1123.41 179.051Z" fill="black"/>
<path d="M1185.69 132.858C1187.54 132.858 1187.54 129.992 1185.69 129.992C1183.84 129.992 1183.84 132.858 1185.69 132.858Z" fill="black"/>
<path d="M1175.99 180.241C1175.95 180.354 1175.91 180.468 1175.86 180.579C1175.91 180.455 1175.97 180.331 1176.02 180.207C1176.01 180.214 1176.01 180.221 1176.01 180.229C1176.46 179.97 1176.91 179.712 1177.36 179.454C1177.05 179.457 1176.64 179.503 1176.38 179.7C1176.37 179.712 1176.35 179.721 1176.33 179.729C1176.48 179.668 1176.62 179.607 1176.77 179.547C1176.75 179.554 1176.73 179.559 1176.71 179.563C1176.87 179.541 1177.03 179.519 1177.19 179.498C1177.13 179.504 1177.08 179.5 1177.03 179.493C1177.19 179.515 1177.36 179.537 1177.52 179.559C1177.47 179.552 1177.41 179.542 1177.36 179.531C1177.73 179.822 1178.11 180.112 1178.49 180.402C1178.17 179.699 1177.39 179.26 1176.63 179.26C1175.49 179.26 1174.53 180.215 1174.53 181.359C1174.53 182.292 1175.17 183.134 1176.07 183.382C1176.99 183.634 1178.09 183.208 1178.49 182.314C1178.11 182.604 1177.73 182.894 1177.36 183.184C1177.62 183.121 1177.9 183.033 1178.12 182.883C1178.46 182.656 1178.61 182.512 1178.83 182.169C1179.08 181.778 1179.16 181.216 1179.02 180.772C1178.87 180.286 1178.59 179.928 1178.15 179.667C1178.39 179.979 1178.63 180.29 1178.87 180.602C1178.83 180.479 1178.79 180.361 1178.75 180.241C1178.68 179.998 1178.56 179.788 1178.38 179.609C1178.11 179.341 1177.75 179.189 1177.37 179.189C1177.11 179.19 1176.87 179.255 1176.64 179.385C1176.31 179.583 1176.11 179.879 1175.99 180.241Z" fill="black"/>
<path d="M1147.05 150.982C1147.01 151.105 1146.98 151.228 1146.94 151.351C1147.24 151.056 1147.53 150.761 1147.83 150.465C1147.53 150.56 1147.27 150.672 1147.04 150.9C1146.75 151.196 1146.58 151.602 1146.58 152.021C1146.58 152.886 1147.3 153.608 1148.16 153.608C1149.03 153.608 1149.75 152.886 1149.75 152.021C1149.75 151.602 1149.58 151.196 1149.29 150.9C1149.06 150.672 1148.8 150.56 1148.5 150.465C1148.8 150.761 1149.09 151.056 1149.39 151.351C1149.35 151.228 1149.32 151.105 1149.28 150.982C1149.14 150.486 1148.68 150.132 1148.16 150.132C1147.64 150.132 1147.19 150.486 1147.05 150.982Z" fill="black"/>
<path d="M1070.17 165.763C1070.81 165.699 1071.53 165.727 1071.89 165.093C1071.67 165.263 1071.45 165.433 1071.23 165.602C1071.38 165.541 1071.53 165.48 1071.68 165.419C1072.55 165.062 1072.55 164.004 1071.68 163.647C1071.53 163.586 1071.38 163.525 1071.23 163.464C1071.45 163.634 1071.67 163.804 1071.89 163.973C1071.53 163.34 1070.81 163.367 1070.17 163.303C1069.5 163.236 1068.94 163.913 1068.94 164.533C1068.94 165.153 1069.5 165.831 1070.17 165.763Z" fill="black"/>
<path d="M1159.02 285.735C1159.18 286.076 1159.33 286.392 1159.59 286.676C1159.47 286.481 1159.36 286.286 1159.25 286.09C1159.32 286.469 1159.59 286.765 1159.9 286.966C1160.22 287.17 1160.65 287.209 1161.01 287.111C1161.33 287.021 1161.72 286.774 1161.86 286.452C1162 286.16 1162.1 285.893 1162.07 285.564C1162.05 285.323 1162.01 285.083 1161.97 284.844C1161.91 284.616 1161.79 284.418 1161.62 284.25C1161.37 283.998 1161.03 283.856 1160.67 283.856C1160.43 283.856 1160.2 283.918 1159.99 284.039C1159.72 284.2 1159.43 284.517 1159.37 284.844C1159.35 284.991 1159.34 285.148 1159.28 285.288C1159.33 285.175 1159.38 285.062 1159.42 284.949C1159.42 284.966 1159.41 284.982 1159.4 284.998C1159.47 284.901 1159.55 284.805 1159.62 284.708C1159.62 284.711 1159.62 284.713 1159.61 284.716C1159.35 284.998 1159.19 285.339 1159.19 285.729C1159.21 285.856 1159.23 285.983 1159.25 286.11C1159.31 286.353 1159.44 286.563 1159.61 286.742L1159.61 286.743C1159.54 286.647 1159.47 286.551 1159.39 286.455C1159.39 286.455 1159.39 286.456 1159.39 286.456C1159.35 286.344 1159.3 286.231 1159.25 286.119C1159.25 286.12 1159.25 286.121 1159.25 286.122C1159.23 285.998 1159.22 285.875 1159.2 285.751C1159.2 285.752 1159.2 285.752 1159.2 285.753C1159.22 285.63 1159.23 285.507 1159.25 285.385C1159.25 285.386 1159.25 285.388 1159.25 285.389C1159.3 285.281 1159.34 285.172 1159.39 285.064C1159.39 285.066 1159.39 285.067 1159.39 285.069C1159.77 284.848 1160.15 284.628 1160.54 284.408C1160.53 284.408 1160.53 284.409 1160.52 284.409C1160.64 284.425 1160.76 284.441 1160.88 284.457C1160.8 284.446 1160.73 284.417 1160.66 284.388C1160.76 284.43 1160.86 284.472 1160.96 284.513C1160.79 284.443 1160.63 284.365 1160.47 284.289C1160.3 284.193 1160.13 284.145 1159.94 284.145C1159.66 284.145 1159.39 284.257 1159.19 284.454C1159.06 284.586 1158.97 284.742 1158.92 284.92C1158.84 285.213 1158.9 285.469 1159.02 285.735Z" fill="black"/>
<path d="M1154.85 320.13C1154.93 320.051 1155.02 319.971 1155.1 319.892C1154.35 320.635 1154.53 321.929 1155.43 322.46C1156.42 323.038 1158.02 322.318 1157.89 321.048C1157.89 320.989 1157.88 320.93 1157.87 320.872C1157.66 318.79 1154.85 318.79 1154.64 320.872C1154.63 320.93 1154.63 320.989 1154.62 321.048C1154.51 322.124 1155.75 322.885 1156.69 322.625C1157.87 322.299 1158.29 320.759 1157.41 319.892C1157.5 319.971 1157.58 320.05 1157.67 320.13C1157.48 318.728 1155.04 318.728 1154.85 320.13Z" fill="black"/>
<path d="M1053.25 335.808C1053.06 335.794 1052.87 335.779 1052.69 335.765C1052.85 335.808 1053 335.851 1053.16 335.894C1053.16 335.89 1053.15 335.887 1053.14 335.884C1053.29 336.073 1053.43 336.263 1053.58 336.452C1053.51 335.961 1052.99 335.611 1052.52 335.611C1051.92 335.611 1051.43 336.109 1051.43 336.705C1051.43 337.301 1051.92 337.799 1052.52 337.799C1052.99 337.799 1053.51 337.449 1053.58 336.958C1053.43 337.147 1053.29 337.337 1053.14 337.526C1053.15 337.523 1053.16 337.52 1053.16 337.517C1053 337.559 1052.85 337.602 1052.69 337.645C1052.87 337.631 1053.06 337.616 1053.25 337.602C1053.74 337.565 1054.15 337.222 1054.15 336.705C1054.15 336.188 1053.74 335.845 1053.25 335.808Z" fill="black"/>
<path d="M1031.18 239.327C1032.74 239.327 1032.74 236.896 1031.18 236.896C1029.61 236.896 1029.61 239.327 1031.18 239.327Z" fill="black"/>
<path d="M1067.53 97.932C1067.69 97.8677 1067.85 97.8038 1068.01 97.7395C1068.17 97.6954 1068.31 97.6157 1068.42 97.5006C1068.6 97.3272 1068.69 97.0892 1068.69 96.8436C1068.69 96.6758 1068.65 96.5195 1068.57 96.3745C1068.43 96.1479 1068.25 96.0409 1068.01 95.9472C1067.85 95.8831 1067.69 95.819 1067.53 95.7547C1067.26 95.6487 1066.9 95.7298 1066.66 95.8684C1066.32 96.0696 1066.1 96.4452 1066.1 96.8431C1066.1 97.1411 1066.22 97.4304 1066.43 97.6411C1066.69 97.9025 1067.17 98.0762 1067.53 97.932Z" fill="black"/>
<path d="M1351.97 266.646C1351.59 266.621 1351.21 266.65 1350.88 266.848C1350.46 267.096 1350.33 267.548 1350.41 268.006C1350.46 268.306 1350.73 268.553 1350.97 268.702C1351.22 268.853 1351.53 268.942 1351.81 268.996C1351.94 269.02 1352.07 269.036 1352.2 269.052C1352.4 269.076 1352.56 269.014 1352.74 268.936C1352.84 268.896 1352.93 268.849 1353.01 268.791C1353.4 268.522 1353.38 268.037 1353.01 267.766C1352.93 267.707 1353.15 267.883 1353.05 267.794C1353.02 267.768 1352.99 267.74 1352.96 267.711C1352.88 267.632 1352.83 267.556 1352.72 267.502C1352.65 267.465 1352.57 267.432 1352.49 267.404C1352.36 267.351 1352.7 267.496 1352.57 267.439C1352.39 267.358 1352.21 267.258 1352.05 267.135C1352.12 267.184 1352.18 267.234 1352.24 267.283C1352.19 267.241 1352.14 267.197 1352.1 267.146C1352.15 267.211 1352.2 267.277 1352.25 267.342C1352.24 267.321 1352.22 267.299 1352.21 267.274C1352.24 267.352 1352.28 267.43 1352.31 267.508C1352.22 267.272 1352.2 267.235 1352.04 267.044C1352.09 267.109 1352.14 267.175 1352.19 267.241C1352.19 267.235 1352.18 267.229 1352.18 267.222C1352.21 267.3 1352.24 267.376 1352.28 267.454C1352.27 267.447 1352.27 267.441 1352.27 267.434C1352.28 267.519 1352.29 267.604 1352.31 267.689C1352.31 267.682 1352.31 267.674 1352.31 267.668C1352.3 267.752 1352.28 267.836 1352.27 267.92C1352.27 267.916 1352.27 267.912 1352.28 267.908C1352.24 267.984 1352.21 268.059 1352.18 268.134C1352.18 268.13 1352.18 268.126 1352.19 268.122C1352.14 268.186 1352.09 268.249 1352.04 268.313C1352.05 268.305 1352.05 268.299 1352.06 268.293C1352 268.342 1351.93 268.391 1351.87 268.439C1351.89 268.425 1351.91 268.413 1351.94 268.403C1351.86 268.434 1351.79 268.465 1351.72 268.497C1351.8 268.462 1351.89 268.445 1351.99 268.431C1351.9 268.442 1351.82 268.453 1351.74 268.463C1351.82 268.453 1351.9 268.446 1351.97 268.44C1352.46 268.403 1352.87 268.059 1352.87 267.542C1352.87 267.03 1352.46 266.677 1351.97 266.646Z" fill="black"/>
<path d="M1427.21 277.107C1427.21 277.134 1427.2 277.16 1427.2 277.186C1427.21 277.072 1427.23 276.957 1427.25 276.842C1427.23 276.953 1427.2 277.059 1427.16 277.163C1427.2 277.058 1427.24 276.953 1427.29 276.848C1427.25 276.933 1427.21 277.013 1427.15 277.087C1427.22 276.997 1427.29 276.907 1427.36 276.817C1427.33 276.857 1427.29 276.894 1427.25 276.927C1427.34 276.857 1427.44 276.787 1427.53 276.717C1427.5 276.737 1427.47 276.753 1427.44 276.766C1427.55 276.721 1427.66 276.676 1427.77 276.63C1427.75 276.637 1427.73 276.642 1427.71 276.645C1427.83 276.629 1427.95 276.613 1428.08 276.597C1428.06 276.598 1428.05 276.598 1428.04 276.597C1428.16 276.613 1428.28 276.63 1428.4 276.646C1428.38 276.644 1428.37 276.641 1428.36 276.636C1428.47 276.682 1428.58 276.728 1428.69 276.774C1428.67 276.768 1428.66 276.762 1428.65 276.754C1428.74 276.826 1428.84 276.897 1428.93 276.968C1428.91 276.955 1428.9 276.941 1428.88 276.924C1428.96 277.017 1429.03 277.109 1429.1 277.202C1429.08 277.181 1429.07 277.16 1429.06 277.138C1429.06 277.6 1429.06 278.063 1429.06 278.525C1429.06 278.522 1429.07 278.519 1429.07 278.515C1428.99 278.609 1428.92 278.703 1428.85 278.797C1429.04 278.639 1429.15 278.377 1429.22 278.151C1429.38 277.673 1429.2 277.108 1428.86 276.761C1428.5 276.4 1427.96 276.258 1427.47 276.393C1426.99 276.525 1426.6 276.911 1426.47 277.391C1426.31 277.978 1426.56 278.721 1427.13 279.005C1427.24 279.063 1427.36 279.113 1427.48 279.156C1427.78 279.239 1427.93 279.208 1428.23 279.155C1427.99 279.155 1427.74 279.155 1427.49 279.155C1427.5 279.156 1427.5 279.157 1427.51 279.157C1427.24 278.947 1426.96 278.736 1426.69 278.526C1427.01 278.998 1427.45 279.307 1428.04 279.317C1428.45 279.324 1428.91 279.122 1429.18 278.805C1429.58 278.337 1429.82 277.731 1429.78 277.108C1429.76 276.759 1429.66 276.449 1429.41 276.197C1429.17 275.957 1428.84 275.82 1428.5 275.82C1428.16 275.82 1427.83 275.957 1427.58 276.197C1427.33 276.453 1427.24 276.756 1427.21 277.107Z" fill="black"/>
<path d="M1437.69 199.852C1437.7 199.937 1437.7 200.021 1437.71 200.105C1437.71 200.172 1437.71 200.239 1437.72 200.306C1437.72 200.342 1437.72 200.378 1437.72 200.414C1437.73 200.671 1437.78 200.766 1437.88 200.998C1438.02 201.33 1438.46 201.524 1438.79 201.524C1439.13 201.524 1439.57 201.33 1439.71 200.998C1439.81 200.761 1439.85 200.7 1439.87 200.438C1439.87 200.404 1439.87 200.369 1439.87 200.334C1439.88 200.258 1439.88 200.182 1439.88 200.106C1439.89 200.021 1439.89 199.937 1439.89 199.852C1439.92 199.253 1439.37 198.753 1438.79 198.753C1438.22 198.753 1437.67 199.253 1437.69 199.852Z" fill="black"/>
<path d="M1420.26 178.791C1420.49 178.643 1420.73 178.504 1420.94 178.321C1421.24 178.061 1421.24 177.496 1420.94 177.236C1420.73 177.053 1420.49 176.914 1420.26 176.766C1419.5 176.293 1418.49 176.908 1418.49 177.779C1418.49 178.649 1419.5 179.264 1420.26 178.791Z" fill="black"/>
<path d="M1223.95 33.7426C1224.2 33.7442 1223.78 33.6899 1223.99 33.7452C1223.88 33.6896 1223.86 33.684 1223.95 33.7283C1224.03 33.7812 1224.02 33.7682 1223.91 33.6894C1224.08 33.8201 1224.21 33.9737 1224.4 34.0774C1224.63 34.2022 1224.88 34.2821 1225.14 34.2952C1225.56 34.3158 1225.96 33.9964 1225.96 33.5554C1225.96 33.4246 1225.92 33.272 1225.86 33.1598C1225.79 33.0462 1225.7 32.9555 1225.58 32.8884C1225.51 32.8404 1225.51 32.8468 1225.59 32.9076C1225.56 32.8822 1225.54 32.8547 1225.51 32.8255C1225.58 32.9228 1225.59 32.9346 1225.54 32.8613C1225.47 32.7515 1225.38 32.6487 1225.29 32.5517C1224.92 32.1576 1224.49 31.9561 1223.95 31.9193C1223.46 31.8852 1223.04 32.3597 1223.04 32.831C1223.04 33.3304 1223.45 33.7395 1223.95 33.7426Z" fill="black"/>
<path d="M1290.17 31.543C1290.04 31.5266 1289.91 31.51 1289.79 31.4936C1290.22 31.8208 1290.65 32.1483 1291.08 32.4755C1291.07 32.4605 1291.07 32.4458 1291.07 32.4308C1290.98 31.9449 1290.48 31.4867 1290.02 31.3795C1289.89 31.3503 1289.76 31.3164 1289.64 31.2846C1289.96 31.5302 1290.27 31.776 1290.59 32.0215C1290.34 31.5472 1289.89 31.2056 1289.36 31.1012C1289.3 31.0876 1289.23 31.0739 1289.16 31.0604C1288.68 30.9654 1288.62 30.9949 1288.13 31.0649C1288.11 31.0682 1288.09 31.0713 1288.06 31.0746C1288.04 31.0777 1288.02 31.081 1288 31.0841C1287.56 31.1472 1287.13 31.5536 1286.91 31.9167C1286.67 32.335 1286.6 32.8451 1286.73 33.3126C1286.86 33.7655 1287.16 34.158 1287.56 34.3952C1287.71 34.456 1287.85 34.517 1288 34.5779C1288.32 34.6643 1288.64 34.6643 1288.96 34.5779C1289.39 34.5155 1289.8 34.376 1290.1 34.0194C1290.4 33.668 1290.59 33.3054 1290.59 32.8309C1290.59 32.3563 1290.4 31.9938 1290.1 31.6424C1289.8 31.2858 1289.39 31.1465 1288.96 31.0838C1288.8 31.0622 1288.64 31.0407 1288.48 31.0191C1288.15 31.02 1287.85 31.1026 1287.56 31.2665C1287.16 31.5038 1286.86 31.8963 1286.73 32.3492C1286.6 32.8169 1286.67 33.3268 1286.91 33.7451C1287.13 34.1081 1287.56 34.5146 1288 34.5777C1288.22 34.6095 1288.46 34.6717 1288.67 34.6669C1288.89 34.6619 1289.12 34.6088 1289.34 34.5649C1289.88 34.4588 1290.34 34.125 1290.59 33.64C1290.27 33.8856 1289.96 34.1314 1289.64 34.377C1289.76 34.3452 1289.89 34.3112 1290.02 34.2821C1290.48 34.1748 1290.98 33.7169 1291.07 33.2307C1291.07 33.2157 1291.07 33.201 1291.08 33.1861C1290.65 33.5133 1290.22 33.8407 1289.79 34.1679C1289.91 34.1516 1290.04 34.1349 1290.17 34.1186C1290.28 34.1034 1290.4 34.088 1290.51 34.0725C1290.73 34.0113 1290.92 33.901 1291.08 33.7413C1291.32 33.5007 1291.46 33.1709 1291.46 32.8307C1291.46 32.4904 1291.32 32.1604 1291.08 31.92C1290.99 31.8528 1290.91 31.7857 1290.82 31.7186C1290.62 31.6023 1290.4 31.5437 1290.17 31.543Z" fill="black"/>
<path d="M1281.34 80.1991C1283.6 80.1991 1283.6 76.6969 1281.34 76.6969C1279.08 76.6969 1279.08 80.1991 1281.34 80.1991Z" fill="black"/>
<path d="M1339.04 64.5259C1338.96 64.6557 1338.88 64.7854 1338.8 64.915C1337.38 67.208 1341.86 68.4641 1341.83 65.735C1341.83 65.6762 1341.83 65.6173 1341.83 65.5585C1341.8 63.4662 1338.6 63.4662 1338.58 65.5585C1338.58 65.6173 1338.58 65.6762 1338.58 65.735C1338.55 68.4641 1343.02 67.208 1341.61 64.915C1341.53 64.7854 1341.45 64.6557 1341.37 64.5259C1340.83 63.6563 1339.58 63.6563 1339.04 64.5259Z" fill="black"/>
<path d="M1362.28 35.4888C1363.81 35.4888 1363.81 33.1154 1362.28 33.1154C1360.75 33.1154 1360.75 35.4888 1362.28 35.4888Z" fill="black"/>
<path d="M1405.29 95.3716C1405.28 95.303 1405.28 95.2345 1405.28 95.1656C1405.26 94.5867 1404.81 94.1027 1404.21 94.1027C1403.65 94.1027 1403.13 94.586 1403.15 95.1656C1403.16 95.4758 1403.18 95.7854 1403.19 96.0955C1403.21 96.6548 1403.64 97.1229 1404.21 97.1229C1404.79 97.1229 1405.22 96.6548 1405.24 96.0955C1405.25 95.7854 1405.27 95.4758 1405.28 95.1656C1405.3 94.5862 1404.78 94.1027 1404.21 94.1027C1403.62 94.1027 1403.17 94.5867 1403.15 95.1656C1403.15 95.2345 1403.15 95.303 1403.14 95.3716C1403.12 95.9553 1403.65 96.4427 1404.22 96.4427C1404.78 96.4427 1405.31 95.9555 1405.29 95.3716Z" fill="black"/>
<path d="M1185.57 52.2754C1185.77 52.1378 1186.01 52.0061 1186.17 51.8348C1186.5 51.4941 1186.5 50.9578 1186.17 50.6169C1186.01 50.4453 1185.77 50.3139 1185.57 50.1763C1185.22 49.9326 1184.69 49.9706 1184.34 50.1763C1183.97 50.3927 1183.74 50.7972 1183.74 51.226C1183.74 51.6547 1183.97 52.0593 1184.34 52.2757C1184.69 52.4811 1185.22 52.5191 1185.57 52.2754Z" fill="black"/>
<path d="M1218.92 161.399C1218.88 161.336 1218.84 161.273 1218.8 161.21C1218.83 161.463 1218.86 161.715 1218.9 161.968C1218.91 161.923 1218.93 161.878 1218.94 161.833C1219.16 161.193 1218.46 160.491 1217.82 160.712C1217.78 160.727 1217.73 160.743 1217.69 160.758C1217.94 160.791 1218.19 160.824 1218.44 160.857C1218.25 160.723 1218.04 160.622 1217.82 160.554C1217.34 160.424 1216.82 160.491 1216.4 160.739C1215.54 161.245 1215.23 162.389 1215.74 163.254C1216.25 164.117 1217.39 164.42 1218.26 163.913C1219.1 163.418 1219.45 162.249 1218.92 161.399Z" fill="black"/>
<path d="M1175.77 250.334C1178.25 250.334 1178.25 246.489 1175.77 246.489C1173.29 246.489 1173.29 250.334 1175.77 250.334Z" fill="black"/>
<path d="M1315.99 291.421C1316.03 291.43 1316.08 291.439 1316.12 291.449C1314.88 291.483 1314.05 292.828 1314.69 293.932C1315.35 295.062 1316.85 294.931 1317.54 293.932C1317.78 293.593 1317.83 293.232 1317.84 292.829C1317.85 292.051 1317.17 291.36 1316.39 291.378C1315.98 291.387 1315.62 291.439 1315.28 291.674C1314.29 292.365 1314.15 293.862 1315.28 294.525C1316.39 295.171 1317.74 294.339 1317.77 293.099C1317.78 293.141 1317.79 293.182 1317.8 293.223C1318.53 292.147 1317.07 290.682 1315.99 291.421Z" fill="black"/>
<path d="M1296.82 278.838C1296.62 278.969 1296.42 279.11 1296.22 279.231C1296.76 279.231 1297.31 279.231 1297.86 279.231C1297.85 279.226 1297.84 279.22 1297.83 279.215C1297.03 278.731 1295.95 278.881 1295.29 279.543C1295.11 279.719 1294.94 279.912 1294.82 280.129C1294.11 281.42 1294.98 283.556 1296.68 283.363C1298.46 283.161 1299.75 281.35 1298.92 279.619C1298.01 277.733 1295.62 278.705 1294.84 280.119C1295.09 279.861 1295.35 279.604 1295.61 279.346C1295.6 279.35 1295.6 279.354 1295.59 279.358C1296.67 279.976 1297.75 280.595 1298.83 281.214C1298.74 281.712 1298.73 281.834 1298.79 281.582C1298.98 280.913 1298.81 280.009 1298.25 279.543C1298.23 279.524 1298.21 279.504 1298.19 279.485C1298.32 280.012 1298.46 280.539 1298.6 281.066C1298.67 280.796 1298.6 281.009 1298.74 280.759C1299.42 279.576 1298.03 278.052 1296.82 278.838Z" fill="black"/>
<path d="M1311.51 223.156C1314.04 223.156 1314.04 219.22 1311.51 219.22C1308.97 219.22 1308.97 223.156 1311.51 223.156Z" fill="black"/>
<path d="M1341.3 220.625C1341 220.582 1340.71 220.54 1340.41 220.506C1338.62 220.302 1338.54 223.389 1340.41 223.341C1340.85 223.329 1341.18 223.201 1341.57 223.01C1342.4 222.615 1342.4 221.231 1341.57 220.836C1341.18 220.646 1340.85 220.517 1340.41 220.506C1338.54 220.457 1338.62 223.544 1340.41 223.341C1340.71 223.306 1341 223.264 1341.3 223.221C1342.59 223.034 1342.59 220.813 1341.3 220.625Z" fill="black"/>
<path d="M1335.79 249.541C1337.24 249.541 1337.24 247.283 1335.79 247.283C1334.33 247.283 1334.33 249.541 1335.79 249.541Z" fill="black"/>
<path d="M1337.11 189.55C1337.13 189.974 1337.14 190.503 1337.5 190.802C1337.74 191.005 1337.98 191.082 1338.29 191.107C1338.42 191.117 1338.58 191.116 1338.7 191.068C1338.85 191.006 1338.98 190.955 1339.08 190.823C1339.13 190.758 1339.18 190.692 1339.23 190.627C1339.36 190.458 1339.36 190.114 1339.23 189.945C1339.13 189.811 1339.05 189.658 1338.89 189.582C1338.72 189.499 1338.64 189.475 1338.45 189.458C1338.41 189.454 1338.38 189.451 1338.34 189.446C1338.41 189.456 1338.49 189.466 1338.56 189.476C1338.53 189.47 1338.49 189.464 1338.45 189.455C1338.39 189.438 1338.28 189.382 1338.59 189.516C1338.53 189.489 1338.42 189.395 1338.71 189.615C1338.6 189.536 1338.85 189.835 1338.79 189.718C1338.92 189.984 1338.85 189.908 1338.84 189.802C1338.85 189.878 1338.86 189.954 1338.87 190.029C1338.85 189.871 1338.87 189.709 1338.88 189.55C1338.9 189.069 1338.46 188.667 1337.99 188.667C1337.53 188.667 1337.09 189.069 1337.11 189.55Z" fill="black"/>
<path d="M1382.19 266.857C1382.1 266.952 1382.02 267.048 1381.93 267.144C1381.86 267.223 1381.79 267.301 1381.71 267.38C1381.61 267.49 1381.46 267.627 1381.4 267.757C1381.32 267.9 1381.28 268.055 1381.28 268.221C1381.28 268.387 1381.32 268.542 1381.4 268.686C1381.48 268.824 1381.59 268.934 1381.73 269.016C1381.92 269.127 1382.23 269.199 1382.44 269.109C1382.63 269.03 1382.74 268.975 1382.89 268.838C1382.93 268.806 1382.96 268.774 1383 268.742C1383.08 268.665 1383.17 268.587 1383.25 268.51C1383.36 268.416 1383.46 268.322 1383.56 268.228C1383.95 267.872 1383.92 267.217 1383.56 266.857C1383.2 266.495 1382.55 266.467 1382.19 266.857Z" fill="black"/>
<path d="M1375.93 236.64C1375.94 236.857 1375.95 237.074 1375.96 237.292C1375.99 237.851 1376.41 238.319 1376.99 238.319C1377.57 238.319 1377.99 237.851 1378.02 237.292C1378.03 237.074 1378.04 236.857 1378.05 236.64C1378.07 236.064 1377.55 235.584 1376.99 235.584C1376.43 235.584 1375.91 236.065 1375.93 236.64Z" fill="black"/>
<path d="M1326.96 416.243C1328 416.243 1328 414.622 1326.96 414.622C1325.91 414.622 1325.91 416.243 1326.96 416.243Z" fill="black"/>
<path d="M1333 364.175C1333 364.172 1333 364.169 1333 364.166C1332.97 364.237 1332.94 364.308 1332.91 364.379C1332.92 364.377 1332.92 364.375 1332.92 364.373C1332.81 364.478 1332.71 364.584 1332.6 364.689C1332.82 364.571 1333.04 364.467 1333.21 364.297C1333.41 364.103 1333.41 363.755 1333.21 363.561C1333.04 363.39 1332.81 363.287 1332.6 363.169C1332.71 363.274 1332.81 363.379 1332.92 363.485C1332.92 363.483 1332.92 363.481 1332.91 363.479C1332.94 363.55 1332.97 363.621 1333 363.692C1332.87 362.991 1331.93 362.803 1331.45 363.274C1331.03 363.697 1331.13 364.427 1331.64 364.729C1332.13 365.014 1332.89 364.769 1333 364.175Z" fill="black"/>
<path d="M1391.71 363.658C1393.26 363.658 1393.26 361.255 1391.71 361.255C1390.16 361.255 1390.16 363.658 1391.71 363.658Z" fill="black"/>
<path d="M1400.54 325.252C1401.9 325.252 1401.9 323.14 1400.54 323.14C1399.17 323.14 1399.17 325.252 1400.54 325.252Z" fill="black"/>
<path d="M1362.29 375.721C1362.19 375.834 1362.08 375.946 1361.98 376.058C1361.9 376.139 1361.82 376.22 1361.75 376.3C1361.72 376.333 1361.69 376.365 1361.66 376.397C1361.45 376.62 1361.36 376.835 1361.33 377.139C1361.29 377.634 1361.81 378.161 1362.31 378.115C1362.61 378.087 1362.82 378.011 1363.04 377.803C1363.07 377.774 1363.1 377.746 1363.13 377.717C1363.22 377.635 1363.3 377.553 1363.39 377.471C1363.5 377.365 1363.62 377.259 1363.73 377.154C1364.13 376.775 1364.11 376.103 1363.73 375.721C1363.35 375.339 1362.67 375.319 1362.29 375.721Z" fill="black"/>
<path d="M1302.68 409.159C1303.27 409.131 1303.83 409.086 1304.19 408.538C1304.49 408.078 1304.33 407.56 1304.12 407.112C1303.86 406.568 1302.97 406.59 1302.71 407.112C1302.67 407.196 1302.62 407.28 1302.57 407.355C1302.62 407.291 1302.67 407.226 1302.72 407.162C1302.7 407.182 1302.68 407.201 1302.66 407.218C1302.73 407.166 1302.8 407.114 1302.86 407.063C1302.85 407.074 1302.83 407.082 1302.82 407.09C1302.9 407.056 1302.98 407.021 1303.06 406.987C1303.04 406.993 1303.03 406.998 1303.01 407C1303.1 406.988 1303.2 406.976 1303.29 406.963C1303.13 406.976 1303.02 407.01 1302.88 407.031C1302.97 407.018 1303.06 407.005 1303.16 406.993C1303 407.011 1302.84 406.996 1302.68 406.989C1302.09 406.96 1301.59 407.504 1301.59 408.074C1301.59 408.644 1302.09 409.188 1302.68 409.159Z" fill="black"/>
<path d="M1352.5 357.275C1352.2 357.373 1351.82 357.438 1351.62 357.684C1351.43 357.908 1351.43 358.176 1351.62 358.401C1351.82 358.647 1352.2 358.712 1352.5 358.81C1352.99 358.973 1353.51 358.541 1353.51 358.042C1353.51 357.544 1352.99 357.112 1352.5 357.275Z" fill="black"/>
<path d="M1219.26 258.424C1207.42 262.346 1195.88 267.912 1185.94 275.485C1177.89 281.608 1170.73 289.441 1167.61 299.236C1166.75 301.942 1166.31 304.775 1165.86 307.572C1165.34 310.755 1164.94 313.957 1164.65 317.167C1164.07 323.397 1163.95 329.669 1164.29 335.917C1164.93 347.582 1167.31 359.13 1171.45 370.058C1178.07 387.543 1189.17 403.034 1203.58 414.932C1203.98 415.262 1204.55 414.718 1204.16 414.352C1187.51 398.824 1174.99 379.254 1169.43 357.075C1166.49 345.294 1165.53 333.109 1166.23 320.997C1166.61 314.627 1167.32 308.137 1168.77 301.915C1169.87 297.176 1172.11 292.793 1174.93 288.853C1179.77 282.093 1186.44 276.743 1193.38 272.274C1201.62 266.969 1210.52 262.849 1219.5 258.99C1219.82 258.851 1219.59 258.315 1219.26 258.424Z" fill="black"/>
<path d="M1206.89 242.45C1187.61 242.102 1167.87 247.084 1151 256.429C1136.29 264.581 1123.9 276.431 1114.7 290.473C1105.82 304.026 1100.14 319.679 1097.48 335.622C1094.86 351.331 1095.18 367.541 1098.55 383.11C1099.67 388.244 1101.19 393.301 1103.02 398.22C1103.93 400.636 1104.91 403.025 1106.02 405.349C1106.58 406.504 1107.16 407.647 1107.76 408.781C1108.36 409.913 1109.11 410.952 1109.72 412.07C1109.98 412.543 1110.71 412.121 1110.45 411.648C1109.55 410.014 1108.86 408.194 1108.1 406.493C1107.32 404.752 1106.59 402.985 1105.88 401.215C1104.44 397.658 1103.22 394.018 1102.17 390.33C1100.02 382.798 1098.64 375.044 1097.99 367.242C1096.65 351.226 1098.43 334.956 1103.19 319.609C1108.03 304.041 1116.13 289.442 1127.18 277.424C1139.05 264.514 1154.22 255.043 1170.85 249.563C1182.52 245.714 1194.68 244.084 1206.89 243.169C1207.35 243.135 1207.36 242.458 1206.89 242.45Z" fill="black"/>
<path d="M1198.25 251.601C1185.48 252.333 1173.74 258.502 1163.48 265.774C1158.21 269.506 1153.24 273.658 1148.55 278.083C1144.03 282.345 1139.7 286.72 1135.91 291.656C1129.18 300.424 1124.46 310.506 1121.64 321.174C1118.86 331.69 1117.9 342.611 1117.47 353.449C1116.93 366.919 1117.2 380.405 1116.89 393.879C1116.88 394.379 1117.63 394.37 1117.66 393.879C1119.08 371.075 1117.08 347.754 1122.13 325.3C1124.54 314.546 1128.82 304.312 1135.12 295.248C1138.68 290.124 1142.87 285.46 1147.42 281.193C1152.19 276.712 1156.97 272.319 1162.21 268.378C1167.65 264.285 1173.46 260.597 1179.59 257.633C1185.38 254.835 1191.81 252.601 1198.25 252.053C1198.54 252.028 1198.54 251.585 1198.25 251.601Z" fill="black"/>
<path d="M1193.98 261.561C1174.56 271.214 1160.03 288.683 1151.66 308.459C1143.27 328.254 1140.45 350.152 1140.38 371.517C1140.36 378.825 1140.44 386.287 1141.48 393.531C1141.53 393.867 1142.05 393.773 1142.06 393.453C1142.12 388.011 1141.82 382.555 1141.78 377.111C1141.75 371.627 1141.87 366.138 1142.17 360.663C1142.77 349.793 1144.19 338.955 1146.77 328.372C1151.83 307.618 1161.71 288.202 1177.8 273.854C1182.84 269.362 1188.45 265.463 1194.2 261.936C1194.44 261.788 1194.23 261.437 1193.98 261.561Z" fill="black"/>
<path d="M1233.27 437.105C1235.3 437.562 1237.34 436.279 1238.65 434.836C1240.19 433.138 1241.04 430.799 1241.29 428.545C1241.76 424.253 1241.23 420.296 1238.43 416.866C1235.94 413.812 1232.1 412.015 1228.32 411.193C1224.46 410.355 1220.08 410.326 1216.49 412.101C1215.88 412.402 1216.33 413.226 1216.92 413.125C1223.66 411.961 1231.13 412.075 1236.36 417.176C1238.93 419.682 1240.02 423.121 1239.84 426.656C1239.73 428.771 1239.42 430.823 1238.4 432.706C1237.88 433.675 1237.14 434.518 1236.24 435.158C1235.32 435.819 1234.3 436.091 1233.27 436.524C1233.02 436.628 1232.95 437.032 1233.27 437.105Z" fill="black"/>
<path d="M1216.46 416.436C1217.98 415.102 1217.71 413.054 1216.88 411.387C1216.1 409.828 1213.31 407.331 1211.45 408.389C1211.18 408.541 1211.17 408.881 1211.36 409.098C1211.85 409.671 1212.69 409.853 1213.35 410.18C1214.17 410.587 1214.83 411.23 1215.36 411.962C1216.24 413.168 1216.44 414.812 1216.14 416.249C1216.1 416.441 1216.31 416.565 1216.46 416.436Z" fill="black"/>
<path d="M1212.64 408.343C1219.11 406.59 1215.18 397.54 1212.81 394.021C1208.54 387.658 1201.15 382.992 1193.29 384.345C1190.55 384.816 1187.62 386.101 1185.81 388.256C1185.44 388.693 1185.89 389.239 1186.4 389.018C1188.54 388.082 1190.51 386.889 1192.8 386.293C1194.72 385.793 1196.75 385.753 1198.7 386.1C1202.51 386.777 1205.9 388.942 1208.64 391.605C1211.12 394.028 1213.2 397.072 1214.21 400.416C1214.91 402.755 1214.95 405.4 1213.1 407.227C1212.89 407.435 1212.64 407.595 1212.38 407.747C1212.07 407.937 1212.28 408.441 1212.64 408.343Z" fill="black"/>
<path d="M1174.13 401.981C1175.45 400.042 1174.58 397.452 1172.92 396.016C1170.92 394.29 1168.12 393.705 1165.55 393.593C1159.31 393.322 1152.47 396.382 1149.98 402.391C1149.11 404.508 1148.77 406.856 1149.37 409.092C1149.46 409.435 1150.05 409.484 1150.11 409.092C1150.62 405.489 1151.11 402.145 1153.75 399.422C1155.96 397.135 1159.03 395.878 1162.12 395.333C1166.16 394.621 1174.15 395.319 1173.61 401.116C1173.59 401.348 1173.64 401.614 1173.65 401.85C1173.65 402.12 1173.99 402.189 1174.13 401.981Z" fill="black"/>
<path d="M1145.99 409.966C1145.31 404.3 1141.01 400.512 1135.31 400.567C1132.61 400.592 1129.97 401.483 1127.6 402.734C1126.34 403.402 1125.17 404.232 1124.09 405.158C1123.12 405.982 1121.75 407.169 1121.65 408.529C1121.63 408.807 1121.93 408.994 1122.18 408.932C1123.26 408.661 1124.2 407.556 1125.02 406.859C1125.98 406.047 1127.06 405.343 1128.15 404.714C1130.18 403.541 1132.49 402.749 1134.83 402.548C1136.97 402.365 1139.09 402.793 1140.88 403.989C1142.97 405.38 1144.11 407.821 1144.89 410.115C1145.08 410.679 1146.07 410.626 1145.99 409.966Z" fill="black"/>
<path d="M1127.7 412.932C1127.35 410.431 1125.74 408.665 1123.16 408.409C1120.69 408.165 1118 409.123 1116.47 411.114C1116.1 411.606 1116.8 412.125 1117.25 411.893C1118.99 411.007 1120.66 410.075 1122.66 410.02C1124.68 409.965 1126.4 411.25 1127.17 413.079C1127.31 413.408 1127.75 413.287 1127.7 412.932Z" fill="black"/>
<path d="M1099.87 445.769C1098.96 444.632 1097.96 443.625 1097.19 442.382C1096.39 441.102 1095.72 439.788 1095.26 438.35C1094.32 435.477 1094.12 432.395 1094.63 429.42C1095.13 426.443 1096.23 423.631 1098.14 421.267C1099.09 420.096 1100.23 419.101 1101.5 418.298C1102.82 417.466 1104.28 416.996 1105.65 416.28C1105.87 416.165 1105.75 415.857 1105.53 415.843C1102.34 415.65 1099.12 417.966 1097.08 420.202C1094.9 422.588 1093.45 425.774 1092.9 428.945C1092.34 432.206 1092.55 435.663 1093.66 438.789C1094.68 441.65 1096.64 444.913 1099.56 446.163C1099.83 446.277 1100.05 445.998 1099.87 445.769Z" fill="black"/>
<path d="M1110.09 411.491C1104.88 410.981 1099.73 418.767 1103.61 422.926C1103.89 423.234 1104.39 422.914 1104.29 422.528C1103.69 420.261 1103.8 418.221 1105.04 416.179C1106.27 414.168 1108.25 413.187 1110.27 412.177C1110.63 411.997 1110.42 411.523 1110.09 411.491Z" fill="black"/>
<path d="M1241.52 432.739C1243.54 435.45 1243.5 439.089 1241.98 442.028C1241.27 443.415 1240.13 444.751 1238.65 445.346C1236.86 446.066 1235.09 445.521 1233.45 444.711C1232.99 444.488 1232.46 445.076 1232.88 445.447C1234.48 446.858 1236.6 447.595 1238.71 447.062C1240.69 446.56 1242.23 444.987 1243.23 443.267C1245.07 440.106 1245.8 434.348 1241.99 432.27C1241.72 432.119 1241.31 432.447 1241.52 432.739Z" fill="black"/>
<path d="M1233.9 413.261C1234.76 413.037 1235.5 412.944 1236.31 412.524C1237.06 412.132 1237.72 411.63 1238.32 411.033C1239.39 409.97 1240.14 408.632 1240.61 407.211C1241.56 404.349 1241.13 401.092 1240.05 398.334C1238.11 393.41 1232.64 388.263 1227.27 391.912C1226.12 392.688 1225.21 393.736 1224.42 394.853C1223.46 396.188 1222.16 398.301 1222.21 399.989C1222.22 400.33 1222.64 400.513 1222.89 400.268C1223.67 399.499 1224.1 398.3 1224.65 397.357C1225.18 396.436 1225.79 395.545 1226.5 394.743C1227.48 393.63 1228.67 392.768 1230.12 392.415C1232.68 391.794 1235.06 393.57 1236.6 395.419C1238.49 397.69 1239.57 400.741 1239.64 403.682C1239.71 406.878 1238.29 409.644 1235.72 411.517C1235.1 411.965 1234.41 412.546 1233.74 412.879C1233.52 412.986 1233.67 413.32 1233.9 413.261Z" fill="black"/>
<path d="M1218.88 394.809C1224.68 393.508 1224.06 386.997 1222.05 382.773C1219.98 378.442 1215.69 373.46 1210.61 372.912C1208.48 372.682 1206.63 373.785 1205.49 375.532C1204.69 376.737 1204.28 378.185 1204 379.584C1203.62 381.475 1203.42 383.742 1203.9 385.624C1203.96 385.864 1204.32 385.864 1204.38 385.624C1205.24 382.334 1204.75 378.342 1207.24 375.649C1208.68 374.091 1210.78 374.176 1212.6 374.977C1217.22 377.01 1221.09 382.268 1222.01 387.178C1222.57 390.201 1221.23 392.67 1218.62 394.197C1218.28 394.394 1218.51 394.891 1218.88 394.809Z" fill="black"/>
<path d="M1186.42 383.911C1189.56 381.37 1188.79 376.892 1185.67 374.708C1184.47 373.868 1182.82 373.587 1181.53 374.376C1179.98 375.325 1179.22 378.181 1180.13 379.74C1180.28 380.002 1180.68 380.011 1180.83 379.74C1181.49 378.56 1181.17 376.732 1182.41 375.878C1183.22 375.319 1184.22 375.762 1184.94 376.254C1187.44 377.949 1187.19 381.081 1185.59 383.273C1185.21 383.794 1185.99 384.257 1186.42 383.911Z" fill="black"/>
<path d="M1297.81 184.162C1297.81 184.162 1256.58 172.358 1254.55 172.056C1253.58 171.91 1208.45 185.667 1206.01 186.392C1203.56 187.118 1239.11 187.449 1242.33 188.808C1244.69 189.799 1264.77 206.355 1264.77 206.355L1297.81 184.162Z" fill="white" stroke="black" stroke-width="2.06474" stroke-miterlimit="10" stroke-linecap="round" stroke-linejoin="round"/>
<path d="M1313.76 214.737C1313.76 214.737 1299.87 255.31 1298.96 257.146C1298.52 258.028 1261.43 287.185 1259.44 288.772C1257.44 290.359 1277.5 261.007 1278.23 257.589C1278.77 255.088 1276.67 229.146 1276.67 229.146L1313.76 214.737Z" fill="white" stroke="black" stroke-width="2.06474" stroke-miterlimit="10" stroke-linecap="round" stroke-linejoin="round"/>
<path d="M1253.21 176.46C1255.24 176.762 1292.72 186.816 1292.72 186.816L1297.81 184.162C1297.81 184.162 1256.58 172.358 1254.55 172.056C1253.58 171.91 1206.01 186.392 1206.01 186.392C1206.01 186.392 1252.46 176.348 1253.21 176.46Z" fill="white" stroke="black" stroke-width="2.06474" stroke-miterlimit="10" stroke-linecap="round" stroke-linejoin="round"/>
<path d="M1308.68 217.392C1308.68 217.392 1295.82 252.858 1294.91 254.696C1294.57 255.373 1259.44 288.772 1259.44 288.772C1259.44 288.772 1298.52 258.028 1298.96 257.146C1299.87 255.31 1313.76 214.737 1313.76 214.737L1308.68 217.392Z" fill="white" stroke="black" stroke-width="2.06474" stroke-miterlimit="10" stroke-linecap="round" stroke-linejoin="round"/>
<path d="M1235.12 221.605L1222.35 233.524L1230.12 248.413L1247.2 244.755L1235.12 221.605Z" fill="white" stroke="black" stroke-width="2.06474" stroke-miterlimit="10" stroke-linecap="round" stroke-linejoin="round"/>
<path d="M1212.61 239.665L1219.5 252.864C1204.31 269.687 1186.15 262.862 1186.15 262.862C1190.76 240.94 1212.61 239.665 1212.61 239.665Z" fill="white" stroke="black" stroke-width="2.06474" stroke-miterlimit="10" stroke-linecap="round" stroke-linejoin="round"/>
<path d="M1218.42 250.789L1213.69 241.73C1208.38 243.672 1200 248.059 1196.3 257.134C1196.3 257.134 1206.79 259.043 1218.42 250.789Z" fill="white" stroke="black" stroke-width="2.06474" stroke-miterlimit="10" stroke-linecap="round" stroke-linejoin="round"/>
<path d="M1206.2 251.734C1206.2 251.734 1211.09 252.18 1217.49 249.021L1214.63 243.534C1211.55 245.258 1208.19 247.888 1206.2 251.734Z" fill="white" stroke="black" stroke-width="2.06474" stroke-miterlimit="10" stroke-linecap="round" stroke-linejoin="round"/>
<path d="M1220.34 254.472L1211.78 238.079L1215.55 236.656L1223.66 252.2L1220.34 254.472Z" fill="white" stroke="black" stroke-width="2.06474" stroke-miterlimit="10" stroke-linecap="round" stroke-linejoin="round"/>
<path d="M1224.13 253.103L1229.42 250.341C1230.16 249.955 1230.45 249.042 1230.06 248.304L1222.4 233.634C1222.02 232.894 1221.11 232.607 1220.36 232.992L1215.08 235.753L1224.13 253.103Z" fill="white" stroke="black" stroke-width="2.06474" stroke-miterlimit="10" stroke-linecap="round" stroke-linejoin="round"/>
<path d="M1272.01 233.373L1258.64 207.758C1239.72 223.393 1239.24 213.71 1242.06 209.742C1241.57 210.203 1240.86 210.743 1239.98 211.338C1237.54 213.174 1234.54 215.29 1231.43 217.147C1226.67 219.99 1223.59 220.083 1223.59 220.083C1223.59 220.083 1229.67 221.694 1235.62 233.081C1236.12 234.04 1236.55 234.823 1236.92 235.464C1237.21 236.096 1237.59 236.861 1238.07 237.786C1243.43 248.06 1241.85 255.079 1241.85 255.083C1244.59 253.018 1243.69 252.604 1248.75 250.324C1252.05 248.837 1255.5 247.584 1258.4 246.633C1259.39 246.253 1260.24 245.976 1260.9 245.844C1256.03 245.887 1248.36 239.957 1272.01 233.373Z" fill="white" stroke="black" stroke-width="2.06474" stroke-miterlimit="10" stroke-linecap="round" stroke-linejoin="round"/>
<path d="M1249.87 227.278L1250.94 229.383C1250.95 229.38 1250.95 229.377 1250.95 229.375C1256.33 237.051 1271.92 233.394 1272.01 233.373C1280.35 230.786 1329.11 228.133 1376.92 162.326C1304 163.515 1265.53 202.396 1258.64 207.76C1258.54 207.846 1246.7 218.495 1249.87 227.278Z" fill="white" stroke="black" stroke-width="2.06474" stroke-miterlimit="10" stroke-linecap="round" stroke-linejoin="round"/>
<path d="M1340.08 182.336C1337.33 177.066 1330.83 175.025 1325.55 177.775C1320.28 180.525 1318.24 187.027 1320.99 192.299C1323.74 197.569 1330.24 199.611 1335.51 196.862C1340.78 194.109 1342.83 187.607 1340.08 182.336ZM1323.86 190.803C1321.93 187.115 1323.36 182.566 1327.05 180.641C1330.74 178.717 1335.29 180.146 1337.21 183.833C1339.14 187.519 1337.7 192.069 1334.02 193.993C1330.33 195.918 1325.78 194.487 1323.86 190.803Z" fill="white" stroke="black" stroke-width="2.06474" stroke-miterlimit="10" stroke-linecap="round" stroke-linejoin="round"/>
<path d="M1334.02 193.993C1330.33 195.918 1325.78 194.488 1323.86 190.803C1321.93 187.115 1323.36 182.566 1327.05 180.641C1330.74 178.717 1335.29 180.146 1337.21 183.833C1339.14 187.519 1337.7 192.07 1334.02 193.993Z" fill="white" stroke="black" stroke-width="2.06474" stroke-miterlimit="10" stroke-linecap="round" stroke-linejoin="round"/>
<path d="M1323.56 184.485L1334.63 193.638C1335.85 192.848 1336.78 191.748 1337.36 190.497L1326.13 181.209C1324.95 182.058 1324.08 183.203 1323.56 184.485Z" fill="white" stroke="black" stroke-width="2.06474" stroke-miterlimit="10" stroke-linecap="round" stroke-linejoin="round"/>
<path d="M1267.3 247.261C1268.96 250.904 1264.16 255.934 1258.93 260.064C1253.68 264.212 1246.47 264.133 1246.47 264.133L1243.75 258.161L1243.63 257.889L1240.91 251.921C1240.91 251.921 1245.33 246.512 1251.77 245.258C1258.42 243.955 1265.61 243.548 1267.3 247.261Z" fill="white" stroke="black" stroke-width="1.85074" stroke-miterlimit="10" stroke-linecap="round" stroke-linejoin="round"/>
<path d="M1267.3 247.249C1268.19 249.217 1262.9 253.164 1257.37 256.628C1251.81 260.109 1245.19 261.31 1245.19 261.31L1243.72 258.085L1243.65 257.941L1242.19 254.718C1242.19 254.718 1247.2 250.602 1253.34 248.708C1259.7 246.749 1266.39 245.245 1267.3 247.249Z" fill="white" stroke="black" stroke-width="1.85074" stroke-miterlimit="10" stroke-linecap="round" stroke-linejoin="round"/>
<path d="M1238.53 265.375L1234.64 256.853C1222.03 257.152 1219.37 268.353 1219.37 268.353C1230.95 275.035 1238.53 265.375 1238.53 265.375Z" fill="white" stroke="black" stroke-width="1.70641" stroke-miterlimit="10" stroke-linecap="round" stroke-linejoin="round"/>
<path d="M1235.25 258.192L1237.92 264.042C1235.32 265.733 1230.62 267.868 1225.26 265.937C1225.26 265.937 1227.73 260.281 1235.25 258.192Z" fill="white" stroke="black" stroke-width="1.70641" stroke-miterlimit="10" stroke-linecap="round" stroke-linejoin="round"/>
<path d="M1236.86 254.376L1241.96 265.577L1246.25 263.627L1241.14 252.424L1236.86 254.376Z" fill="white" stroke="black" stroke-width="1.85074" stroke-miterlimit="10" stroke-linecap="round" stroke-linejoin="round"/>
<path d="M1234.23 255.946L1239.05 266.533L1241.7 264.995L1237.12 254.959L1234.23 255.946Z" fill="white" stroke="black" stroke-width="1.85074" stroke-miterlimit="10" stroke-linecap="round" stroke-linejoin="round"/>
<path d="M1248.28 205.537C1249.94 209.179 1245.15 214.209 1239.91 218.339C1234.66 222.487 1227.46 222.408 1227.46 222.408L1224.74 216.437L1224.61 216.167L1221.89 210.196C1221.89 210.196 1226.31 204.79 1232.75 203.533C1239.41 202.231 1246.59 201.824 1248.28 205.537Z" fill="white" stroke="black" stroke-width="1.85074" stroke-miterlimit="10" stroke-linecap="round" stroke-linejoin="round"/>
<path d="M1248.28 205.526C1249.17 207.492 1243.88 211.441 1238.35 214.904C1232.79 218.384 1226.17 219.586 1226.17 219.586L1224.7 216.362L1224.64 216.218L1223.17 212.995C1223.17 212.995 1228.18 208.881 1234.32 206.984C1240.68 205.024 1247.36 203.521 1248.28 205.526Z" fill="white" stroke="black" stroke-width="1.85074" stroke-miterlimit="10" stroke-linecap="round" stroke-linejoin="round"/>
<path d="M1219.51 223.651L1215.62 215.129C1203.01 215.428 1200.35 226.629 1200.35 226.629C1211.93 233.309 1219.51 223.651 1219.51 223.651Z" fill="white" stroke="black" stroke-width="1.70641" stroke-miterlimit="10" stroke-linecap="round" stroke-linejoin="round"/>
<path d="M1216.23 216.469L1218.9 222.318C1216.3 224.011 1211.6 226.144 1206.24 224.212C1206.24 224.212 1208.71 218.559 1216.23 216.469Z" fill="white" stroke="black" stroke-width="1.70641" stroke-miterlimit="10" stroke-linecap="round" stroke-linejoin="round"/>
<path d="M1222.12 210.687L1217.84 212.638L1222.95 223.84L1227.23 221.888L1222.12 210.687Z" fill="white" stroke="black" stroke-width="1.85074" stroke-miterlimit="10" stroke-linecap="round" stroke-linejoin="round"/>
<path d="M1215.21 214.223L1220.03 224.809L1222.68 223.272L1218.11 213.235L1215.21 214.223Z" fill="white" stroke="black" stroke-width="1.85074" stroke-miterlimit="10" stroke-linecap="round" stroke-linejoin="round"/>
<path d="M1123.62 438.698C1121.42 437.144 1120.26 435.16 1121.08 432.455C1121.96 429.507 1124.51 427.072 1127.04 425.473C1130.12 423.53 1133.85 422.629 1137.46 423.207C1142.51 424.015 1145.91 427.537 1149.2 431.142C1149.58 431.558 1150.23 431.025 1149.97 430.553C1147.67 426.477 1143.56 423.24 1139 422.069C1135.38 421.137 1131.56 421.71 1128.2 423.276C1125.26 424.646 1122.61 426.902 1120.97 429.717C1119.75 431.809 1119.04 434.62 1120.39 436.822C1121.06 437.926 1122.29 438.648 1123.53 438.896C1123.66 438.922 1123.72 438.77 1123.62 438.698Z" fill="black"/>
<path d="M1144.79 437.938C1146.19 434.881 1149.2 433.031 1152.33 432.139C1154.09 431.638 1155.93 431.515 1157.74 431.654C1159.75 431.808 1161.52 432.674 1163.45 433.103C1163.76 433.17 1163.99 432.806 1163.76 432.571C1162.4 431.177 1160.25 430.694 1158.38 430.478C1156.23 430.23 1154.09 430.4 1152.01 430.956C1148.6 431.866 1145.19 434.149 1144.27 437.719C1144.2 438.022 1144.66 438.24 1144.79 437.938Z" fill="black"/>
<path d="M1155.9 431.592C1152.51 425.863 1154.53 418.961 1158.87 414.363C1161 412.107 1163.84 410.331 1166.95 409.919C1170.43 409.459 1173.54 411.025 1176.18 413.166C1176.68 413.573 1177.31 412.955 1176.89 412.456C1174.47 409.597 1170.93 408.069 1167.18 408.425C1163.66 408.76 1160.48 410.696 1158.04 413.182C1153.37 417.944 1150.5 426.454 1155.25 432.089C1155.56 432.451 1156.13 431.984 1155.9 431.592Z" fill="black"/>
<path d="M1177.66 438.793C1177.33 433.95 1180.14 430.034 1184.56 428.175C1186.59 427.324 1188.89 426.912 1191.07 427.262C1192.13 427.431 1193.11 427.808 1194.01 428.384C1194.78 428.882 1195.46 430.19 1196.37 430.339C1196.67 430.389 1196.97 430.265 1197.06 429.948C1197.37 428.817 1195.98 427.769 1195.2 427.174C1194.2 426.409 1192.95 425.953 1191.72 425.71C1189.13 425.196 1186.36 425.689 1183.95 426.726C1181.49 427.784 1179.31 429.445 1177.86 431.721C1177.21 432.748 1176.77 433.923 1176.61 435.128C1176.42 436.575 1176.75 437.598 1177.42 438.856C1177.48 438.964 1177.66 438.918 1177.66 438.793Z" fill="black"/>
<path d="M1194 438.924C1194.5 435.81 1194.93 432.75 1197.49 430.624C1199.56 428.908 1202.54 428.761 1205.08 429.026C1208.29 429.36 1211.42 430.578 1214.25 432.055C1215.74 432.831 1217.17 433.72 1218.55 434.675C1219.73 435.494 1221.01 436.759 1222.39 437.192C1222.69 437.283 1222.99 436.981 1222.9 436.688C1222.41 435.173 1220.72 433.957 1219.51 433.036C1218.03 431.919 1216.44 430.97 1214.79 430.141C1211.55 428.521 1208.04 427.362 1204.42 427.104C1201.45 426.892 1198.39 427.522 1196.08 429.477C1193.46 431.689 1192.57 435.667 1193.05 438.924C1193.11 439.401 1193.92 439.395 1194 438.924Z" fill="black"/>
</g>
<defs>
<clipPath id="clip0_37_24335">
<rect width="1440" height="445" fill="white" transform="translate(1440 445) rotate(180)"/>
</clipPath>
</defs>
</svg>
