<svg width="165" height="165" viewBox="0 0 165 165" fill="none" xmlns="http://www.w3.org/2000/svg">
<path d="M65.7444 135.816C63.7799 135.816 61.4908 135.042 59.0772 132.986C59.0628 132.975 58.9639 132.91 58.9494 132.9C58.2045 132.354 58.0467 131.313 58.5892 130.567C59.1317 129.817 60.1834 129.661 60.9283 130.199L59.9466 131.555L60.965 130.225C61.0628 130.292 61.1573 130.36 61.2463 130.436C64.3569 133.085 66.8317 132.771 68.1146 131.595C69.3153 130.494 69.7822 128.333 68.3559 126.334L64.9173 121.598C64.3736 120.849 64.5392 119.803 65.2874 119.26C66.0345 118.718 67.0818 118.881 67.6254 119.631L71.073 124.379C73.3376 127.549 73.0419 131.616 70.3792 134.062C69.2753 135.073 67.6666 135.816 65.7444 135.816Z" fill="black"/>
<path d="M67.6763 93.5255C65.5451 93.5255 63.4394 92.6517 61.913 90.9807C60.4466 89.3754 59.714 87.2119 59.9007 85.0463C60.0875 82.8806 61.1815 80.875 62.9013 79.5442L84.7515 62.6513C91.1051 57.7385 99.7656 57.0492 106.821 60.8947L109.822 62.3878C110.632 62.7902 111.551 62.8558 112.414 62.5734L140.638 53.2637C141.518 52.9758 142.461 53.4516 142.752 54.3288C143.041 55.207 142.566 56.1531 141.687 56.4433L113.462 65.753C111.757 66.3123 109.936 66.1822 108.332 65.3839L105.274 63.862C99.3332 60.6234 92.1024 61.1993 86.8005 65.3006L64.9503 82.1935C63.9542 82.9651 63.3449 84.0801 63.236 85.3364C63.1281 86.5905 63.535 87.7956 64.3855 88.725C65.8441 90.3237 68.2277 90.6428 70.0554 89.4877L90.8828 76.3346C91.3186 76.0611 91.8567 76.0011 92.3425 76.1745C92.8284 76.3491 93.2053 76.7371 93.3665 77.2273C93.5299 77.7165 97.5588 89.322 110.699 89.322C111.622 89.322 112.372 90.0713 112.372 90.9952C112.372 91.919 111.622 92.6684 110.699 92.6684C98.6217 92.6684 92.9795 84.1302 91.024 80.2035L71.8431 92.3182C70.5557 93.1297 69.1093 93.5255 67.6763 93.5255Z" fill="black"/>
<path d="M101.502 125.801C99.1632 125.801 96.8563 124.751 95.3176 122.762L81.7466 105.197C81.1818 104.467 81.3164 103.415 82.0479 102.85C82.7794 102.286 83.8289 102.42 84.3948 103.152L97.9658 120.715C99.4278 122.606 102.107 123.014 104.067 121.64C106.037 120.259 106.555 117.505 105.218 115.504C92.5672 96.5591 84.5649 84.6812 83.7388 83.6206C83.1952 83.0392 83.1296 82.1342 83.6232 81.4749C84.178 80.7356 85.2252 80.5867 85.9657 81.1392C86.3181 81.4038 86.6227 81.6317 108 113.645C110.34 117.147 109.436 121.965 105.987 124.382C104.623 125.339 103.055 125.801 101.502 125.801Z" fill="black"/>
<path d="M90.4915 130.85C88.1724 130.85 85.8866 129.81 84.3569 127.835L71.027 110.625C70.4612 109.895 70.5946 108.843 71.325 108.277C72.0543 107.713 73.106 107.846 73.673 108.575L87.0028 125.785C88.4559 127.662 91.1107 128.057 93.0462 126.683C93.8556 126.11 94.3592 125.29 94.5015 124.313C94.6861 123.059 94.2581 121.622 93.3587 120.47L85.5553 110.485C84.9861 109.757 85.1151 108.705 85.8444 108.136C86.5715 107.568 87.6243 107.695 88.1935 108.425L95.9968 118.41C97.4699 120.296 98.1325 122.624 97.8134 124.799C97.5388 126.676 96.5338 128.314 94.9818 129.415C93.6155 130.382 92.0457 130.85 90.4915 130.85Z" fill="black"/>
<path d="M79.1374 134.886C76.8184 134.886 74.5315 133.846 73.0028 131.871L59.673 114.661C59.1072 113.931 59.2406 112.879 59.971 112.313C60.7003 111.749 61.7531 111.882 62.319 112.611L75.6488 129.821C77.1018 131.699 79.7567 132.093 81.6922 130.72C82.5016 130.147 83.0052 129.327 83.1475 128.35C83.3321 127.095 82.904 125.659 82.0046 124.507L74.2013 114.522C73.6321 113.794 73.7611 112.742 74.4904 112.173C75.2186 111.605 76.2703 111.732 76.8395 112.462L84.6428 122.447C86.1159 124.332 86.7785 126.66 86.4594 128.835C86.1848 130.713 85.1798 132.351 83.6278 133.452C82.2626 134.418 80.6928 134.886 79.1374 134.886Z" fill="black"/>
<path d="M54.0032 135.632C52.3801 135.632 50.768 135.063 49.4651 133.937C48.0409 132.707 47.1893 130.993 47.0659 129.116C46.9436 127.237 47.5651 125.428 48.8169 124.023L50.5112 122.137C51.8309 120.656 53.7319 119.799 55.7209 119.796C55.7275 119.796 55.732 119.796 55.7386 119.796C57.7075 119.796 59.5886 120.633 60.9038 122.093L61.1728 122.39C62.478 123.839 63.1184 125.661 62.9761 127.518C62.8371 129.342 61.951 131.01 60.4802 132.214L58.5069 134.004C57.1761 135.091 55.5841 135.632 54.0032 135.632ZM51.6541 131.405C52.9915 132.561 54.9548 132.587 56.3223 131.467L58.2956 129.678C59.1139 129.006 59.5686 128.166 59.6375 127.262C59.7087 126.326 59.3696 125.391 58.6836 124.628L58.4146 124.331C57.7242 123.562 56.7737 123.141 55.7375 123.141C55.7342 123.141 55.7308 123.141 55.7275 123.141C54.6891 123.144 53.6953 123.59 53.0038 124.369L51.3094 126.254C50.6635 126.979 50.34 127.919 50.4045 128.897C50.469 129.873 50.9125 130.764 51.6541 131.405Z" fill="black"/>
<path d="M45.0878 127.348C43.8671 127.348 42.6297 126.94 41.4657 125.868C40.0538 124.721 39.2667 123.305 39.1277 121.661C38.9276 119.29 40.1094 116.646 42.6408 113.804L44.6609 111.618C45.9638 110.153 47.8638 109.299 49.8527 109.293C49.8594 109.293 49.8649 109.293 49.8716 109.293C51.8405 109.293 53.7216 110.13 55.0368 111.59L55.3058 111.887C56.611 113.336 57.2514 115.159 57.1091 117.015C56.9701 118.84 56.084 120.507 54.6132 121.711L52.2385 123.833C50.7943 125.03 47.9939 127.348 45.0878 127.348ZM49.8738 112.639C49.8694 112.639 49.866 112.639 49.8627 112.639C48.8243 112.643 47.8315 113.09 47.14 113.867L45.1189 116.053C43.2968 118.1 42.3451 120 42.4618 121.38C42.5241 122.111 42.8865 122.719 43.6047 123.294C43.6392 123.322 43.6725 123.35 43.7036 123.381C45.2023 124.783 47.2601 123.609 50.1028 121.256L50.4553 120.966L52.4286 119.176C53.2469 118.504 53.7016 117.664 53.7705 116.761C53.8417 115.824 53.5026 114.89 52.8166 114.126L52.5476 113.829C51.8583 113.062 50.9089 112.639 49.8738 112.639Z" fill="black"/>
<path d="M38.8655 117.276C37.2424 117.276 35.6303 116.708 34.3274 115.582C32.9032 114.351 32.0516 112.638 31.9282 110.76C31.8059 108.881 32.4274 107.073 33.6792 105.667L35.3735 103.782C36.6932 102.301 38.5943 101.444 40.5832 101.44C40.5898 101.44 40.5943 101.44 40.6009 101.44C42.5698 101.44 44.4509 102.278 45.7661 103.737L46.0329 104.031C47.3403 105.485 47.9807 107.306 47.8384 109.164C47.6983 110.988 46.8122 112.656 45.3425 113.859L43.3692 115.649C42.0384 116.737 40.4464 117.276 38.8655 117.276ZM36.5164 113.049C37.8538 114.205 39.8172 114.231 41.1846 113.112L43.1579 111.322C43.9762 110.649 44.4309 109.811 44.4998 108.908C44.5721 107.972 44.2319 107.035 43.5459 106.271L43.2791 105.977C42.5865 105.207 41.636 104.786 40.5998 104.786C40.5965 104.786 40.5931 104.786 40.5898 104.786C39.5514 104.789 38.5576 105.235 37.8661 106.013L36.1717 107.899C35.5258 108.623 35.2023 109.564 35.2668 110.541C35.3313 111.518 35.7748 112.41 36.5164 113.049Z" fill="black"/>
<path d="M33.4021 108.184C33.2498 108.184 33.0953 108.163 32.9418 108.119C32.0602 107.868 31.5477 106.956 31.7845 106.075C32.0536 104.962 36.2104 83.0843 37.5989 65.5054C37.6434 64.9395 37.9714 64.4348 38.4705 64.1657L51.6958 57.015C57.6281 53.8065 64.9423 54.3535 70.3287 58.4091L81.4294 66.7617C82.1688 67.3164 82.3166 68.3659 81.7607 69.1041C81.2048 69.8434 80.1565 69.9924 79.4183 69.4354L68.3175 61.0829C63.9706 57.8143 58.0717 57.3719 53.2901 59.96L40.863 66.6794C39.3433 84.9076 35.1976 106.315 35.0108 106.97C34.8007 107.704 34.1292 108.184 33.4021 108.184Z" fill="black"/>
<path d="M32.4886 108.244C32.4175 108.244 32.3474 108.24 32.2751 108.232L11.4622 105.584C11.0131 105.527 10.6061 105.29 10.3349 104.927C10.0636 104.563 9.9502 104.108 10.0202 103.66L16.7063 61.6523C16.7774 61.2087 17.0231 60.8129 17.39 60.5528C17.7547 60.2926 18.2105 60.1915 18.6529 60.2682L39.5615 63.9892C40.472 64.1515 41.0779 65.0209 40.9167 65.9303C40.7533 66.8408 39.8828 67.44 38.9756 67.2855L19.7447 63.8624L13.599 102.481L32.6998 104.911C33.617 105.029 34.2651 105.866 34.1484 106.784C34.0395 107.628 33.3191 108.244 32.4886 108.244Z" fill="black"/>
<path d="M107.858 117.17C107.539 117.17 107.216 117.079 106.93 116.889C106.162 116.375 105.955 115.336 106.468 114.567C106.6 114.371 106.763 114.125 117.784 103.776C118.004 103.569 118.276 103.424 118.573 103.36L150.284 96.4437L140.012 55.3537C139.788 54.4565 140.333 53.5482 141.23 53.3236C142.13 53.1002 143.035 53.6438 143.26 54.541L153.95 97.3042C154.06 97.7433 153.987 98.208 153.748 98.5927C153.51 98.9774 153.125 99.2497 152.683 99.3454L119.737 106.532C115.788 110.242 109.737 115.95 109.14 116.574C108.814 116.963 108.34 117.17 107.858 117.17Z" fill="black"/>
<path d="M118.929 62.2321C118.929 62.6101 129.431 102.442 129.431 102.442C129.431 102.442 153.177 97.3332 152.988 96.9541C152.799 96.5761 141.73 55.2314 141.73 55.2314L118.929 62.2321Z" fill="black"/>
<path d="M27.6458 79.516C24.8186 79.516 22.5195 77.217 22.5195 74.3898C22.5195 71.5638 24.8186 69.2646 27.6458 69.2646C30.4729 69.2646 32.772 71.5638 32.772 74.3898C32.7732 77.217 30.4729 79.516 27.6458 79.516ZM27.6458 72.6099C26.6641 72.6099 25.8659 73.4081 25.8659 74.3887C25.8659 75.3704 26.6641 76.1686 27.6458 76.1686C28.6274 76.1686 29.4257 75.3704 29.4257 74.3887C29.4268 73.4092 28.6274 72.6099 27.6458 72.6099Z" fill="black"/>
<path d="M79.6659 50.8485C78.7409 50.8485 77.9927 50.0992 77.9927 49.1753V31.6732C77.9927 30.7482 78.742 30 79.6659 30C80.5897 30 81.339 30.7493 81.339 31.6732V49.1753C81.339 50.0992 80.5908 50.8485 79.6659 50.8485Z" fill="black"/>
<path d="M74.2735 51.6081C73.6654 51.6081 73.0784 51.2734 72.7826 50.6953L66.0666 37.5445C65.6453 36.7207 65.9721 35.7123 66.7948 35.2932C67.6197 34.8719 68.6258 35.1998 69.0461 36.0214L75.7621 49.1722C76.1835 49.996 75.8566 51.0044 75.0328 51.4246C74.7894 51.5491 74.5292 51.6081 74.2735 51.6081Z" fill="black"/>
<path d="M67.9331 53.309C67.4951 53.309 67.0582 53.1389 66.7291 52.7987L58.4977 44.2827C57.8563 43.6179 57.8741 42.5584 58.5378 41.9158C59.2015 41.2732 60.261 41.291 60.9047 41.9558L69.136 50.4718C69.7775 51.1366 69.7597 52.1961 69.096 52.8387C68.7725 53.1533 68.3522 53.309 67.9331 53.309Z" fill="black"/>
<path d="M84.9627 51.9848C84.7059 51.9848 84.4446 51.9248 84.2001 51.8003C83.3785 51.3778 83.0528 50.3706 83.4741 49.5479L89.2463 38.2904C89.6687 37.4677 90.6771 37.1453 91.4987 37.5644C92.3202 37.9869 92.646 38.9941 92.2246 39.8168L86.4524 51.0743C86.1567 51.6513 85.5697 51.9848 84.9627 51.9848Z" fill="black"/>
<path d="M91.5856 54.35C91.1976 54.35 90.8074 54.2155 90.4894 53.9409C89.7913 53.3362 89.7168 52.2778 90.3227 51.5796L97.1343 43.7262C97.7402 43.0303 98.7953 42.9536 99.4957 43.5595C100.194 44.1643 100.268 45.2227 99.6624 45.9197L92.8508 53.7731C92.5195 54.1544 92.0548 54.35 91.5856 54.35Z" fill="black"/>
<path d="M65.9398 86.4842C64.2978 86.4842 62.4423 85.9973 61.5251 85.7227C60.6401 85.457 60.1376 84.5242 60.4033 83.6404C60.6679 82.7554 61.5996 82.2507 62.4857 82.5164C64.0855 82.9945 66.0021 83.2702 66.499 83.0945C67.1761 82.7854 67.8309 82.4875 69.9054 80.5553C71.4674 79.1011 69.5708 76.8432 69.4896 76.7465C68.8893 76.0438 68.9727 74.9877 69.6753 74.3873C70.3779 73.7848 71.433 73.8704 72.0344 74.5719C73.4452 76.224 75.2918 80.1117 72.1856 83.0033C69.8899 85.1423 68.9493 85.6549 67.8698 86.1462C67.3328 86.3908 66.6569 86.4842 65.9398 86.4842Z" fill="black"/>
</svg>
