<svg width="165" height="165" viewBox="0 0 165 165" fill="none" xmlns="http://www.w3.org/2000/svg">
<path d="M140.553 79.5455C141.822 78.4806 140.99 77.5664 139.889 76.2491C113.785 45.0067 117.083 49.4705 109.973 49.2477C43.1629 47.153 57.6579 44.4235 37.2619 62.2376C20.8909 76.5374 20.7159 75.9108 23.1079 78.8402C28.3449 85.2512 78.3249 134.585 78.3259 134.59C78.9539 136.193 80.9629 136.601 82.5359 135.514C83.7279 134.692 133.323 85.6133 140.553 79.5455ZM110.571 51.7241C114.873 51.8085 111.397 49.1035 134.725 76.1287C134.048 76.7103 135.478 76.2483 107.367 76.2982C103.889 76.304 105.728 75.2964 93.0829 52.3098C92.3969 51.0647 91.4769 51.3497 110.571 51.7241ZM77.9429 51.6963C78.6879 50.5125 78.9199 50.9696 88.0459 51.2203C89.1619 51.2506 87.9639 49.3222 101.823 75.4807C102.406 76.5809 105.041 76.2499 61.6779 76.2499C61.3059 75.6839 76.8979 53.3568 77.9429 51.6963ZM24.8329 76.3097C25.0749 74.5886 33.8339 69.1868 53.9669 51.2809C55.7409 49.7032 55.5629 50.1816 72.8299 50.7861C75.1759 50.868 75.2419 50.6829 73.9659 52.5032C58.0929 75.1448 58.9519 73.694 58.8249 74.0905C57.8049 77.278 57.5049 76.3097 24.8329 76.3097ZM27.2719 78.3749C58.1369 78.3749 56.8569 77.8359 57.5009 79.376C79.1239 131.119 78.5259 128.816 78.6429 130.204C61.8779 112.838 44.9629 95.5853 27.2719 78.3749ZM82.5389 129.95C81.1419 127.662 61.0089 79.983 60.7449 78.4199C74.2419 78.5322 87.7149 78.6452 101.462 78.7591C94.9439 95.7885 88.8069 112.747 82.5389 129.95ZM86.1579 127.584C89.9129 117.661 96.7209 101.243 103.867 82.0662C105.416 77.908 102.251 78.7755 133.336 78.7435C136.581 78.7403 136.091 78.6379 136.409 79.1662C82.6929 131.503 86.6939 127.841 86.1579 127.584Z" fill="black"/>
<path d="M83.9919 42.459C88.1339 42.5 85.6859 26.9148 83.2989 30.5496C82.0639 32.4305 80.3519 42.423 83.9919 42.459Z" fill="black"/>
<path d="M67.3459 41.755C69.7329 44.1954 72.9429 42.3055 70.0599 39.7546C54.1919 25.7087 58.6609 32.8742 67.3459 41.755Z" fill="black"/>
<path d="M100.158 43.4344C101.55 42.5857 105.613 38.375 106.704 37.2421C112.507 31.2137 99.5028 39.0599 97.8028 41.0923C96.1218 43.0993 98.5278 44.4281 100.158 43.4344Z" fill="black"/>
<path d="M74.934 104.372C73.461 104.67 76.22 109.38 78.006 110.894C77.865 109.865 76.154 104.125 74.934 104.372Z" fill="black"/>
<path d="M79.6389 114.455C78.7899 114.519 79.0759 115.573 79.9149 115.56C80.5709 115.55 80.5739 114.385 79.6389 114.455Z" fill="black"/>
<path d="M103.034 106.599C101.772 108.051 102.97 108.272 103.492 107.738C111.558 99.4791 123.186 89.4006 122.677 87.8105C120.526 88.3922 104.872 104.483 103.034 106.599Z" fill="black"/>
<path d="M125.443 85.4018C124.547 85.4616 124.503 86.4291 125.412 86.425C126.273 86.1391 126.032 85.3625 125.443 85.4018Z" fill="black"/>
<path d="M40.6799 84.6172C40.0589 84.0732 39.2389 82.9476 38.4879 83.4662C37.5009 84.1469 38.8209 84.9645 39.3859 85.5609C58.3169 105.58 58.0279 99.8107 40.6799 84.6172Z" fill="black"/>
<path d="M58.2029 103.203C57.2689 102.984 57.3799 105.338 60.1979 105.339C59.7839 104.319 59.4059 103.485 58.2029 103.203Z" fill="black"/>
<path d="M38.5938 71.5391C38.6938 71.4932 50.5388 60.0966 51.9678 58.26C51.3378 57.1901 50.4248 58.0323 49.5068 58.9588C44.3988 64.1156 43.2798 64.4498 38.1678 69.8442C37.0488 71.0246 37.7028 71.9446 38.5938 71.5391Z" fill="black"/>
<path d="M26.8679 75.372C34.9309 75.1721 43.0029 75.105 51.0789 75.2778C43.0059 74.6724 34.9369 74.6085 26.8679 75.372Z" fill="black"/>
<path d="M57.2669 53.632C58.0479 53.7172 58.1119 52.7653 57.2959 52.7735C56.7249 52.7792 56.5409 53.5525 57.2669 53.632Z" fill="black"/>
<path d="M92.3168 74.4973C91.0698 74.2385 69.3188 74.3188 62.4968 75.4099C65.0688 75.8965 90.6068 75.2002 92.3168 74.4973Z" fill="black"/>
<path d="M96.6438 74.9607C95.1968 73.8065 94.2688 74.9018 94.8848 75.2794C95.5878 75.7111 96.1458 75.4432 96.6438 74.9607Z" fill="black"/>
<path d="M69.2528 71.7115C68.8908 71.8377 69.4558 71.0488 68.7038 71.2291C68.1658 71.3577 68.1308 72.1244 69.2528 71.7115Z" fill="black"/>
<path d="M119.505 62.6503C118.245 60.6916 116.902 59.0278 115.27 57.2289C104.891 45.793 127.521 75.111 119.505 62.6503Z" fill="black"/>
<path d="M107.671 75.601C130.524 75.2307 106.628 73.5506 106.95 75.234C107.016 75.5781 107.376 75.6059 107.671 75.601Z" fill="black"/>
<path d="M120.637 75.0314C120.776 75.9129 123.655 75.5402 124.91 74.9766C123.731 74.3097 120.473 73.9919 120.637 75.0314Z" fill="black"/>
</svg>
